<?xml version="1.0" encoding="UTF-8"?>
<!DOCTYPE svg PUBLIC "-//W3C//DTD SVG 1.1//EN" "http://www.w3.org/Graphics/SVG/1.1/DTD/svg11.dtd">
<!-- Creator: CorelDRAW -->
<svg xmlns="http://www.w3.org/2000/svg" xml:space="preserve" width="194mm" height="28mm" version="1.1" style="shape-rendering:geometricPrecision; text-rendering:geometricPrecision; image-rendering:optimizeQuality; fill-rule:evenodd; clip-rule:evenodd"
viewBox="0 0 19669.94 2838.96"
 xmlns:xlink="http://www.w3.org/1999/xlink"
 xmlns:xodm="http://www.corel.com/coreldraw/odm/2003">
 <defs>
  <style type="text/css">
   <![CDATA[
    .fil0 {fill:none}
    .fil2 {fill:#133654}
    .fil4 {fill:#FDC017}
    .fil1 {fill:white}
    .fil5 {fill:#133654;fill-rule:nonzero}
    .fil3 {fill:#761713;fill-rule:nonzero}
    .fil6 {fill:white;fill-rule:nonzero}
    .fil7 {fill:white;fill-rule:nonzero}
   ]]>
  </style>
 </defs>
 <g id="Слой_x0020_1">
  <metadata id="CorelCorpID_0Corel-Layer"/>
  <g id="_105553202487744">
   <rect class="fil0" x="-0.01" width="19669.94" height="2838.96"/>
   <g id="_105553249663360">
    <path class="fil1" d="M1635.3 381.68c573.17,0 1037.8,464.64 1037.8,1037.8 0,573.17 -464.65,1037.8 -1037.8,1037.8 -573.17,0 -1037.8,-464.64 -1037.8,-1037.8 0,-573.17 464.65,-1037.8 1037.8,-1037.8z"/>
    <path class="fil2" d="M1635.3 381.68c573.17,0 1037.8,464.65 1037.8,1037.8 0,573.17 -464.65,1037.8 -1037.8,1037.8 -573.17,0 -1037.8,-464.65 -1037.8,-1037.8 0,-573.17 464.65,-1037.8 1037.8,-1037.8zm0 -339.65c760.74,0 1377.45,616.71 1377.45,1377.45 0,760.74 -616.71,1377.45 -1377.45,1377.45 -760.75,0 -1377.45,-616.71 -1377.45,-1377.45 0,-760.74 616.7,-1377.45 1377.45,-1377.45z"/>
    <path class="fil3" d="M1938.78 1530.08c-30.44,14.16 -68.31,27.88 -100.28,34.89 -13.25,2.9 4.13,-3.69 15.14,-10.66l67.71 -46.5c20.59,-19.75 51.63,-43.38 70,-65.15 11.31,-13.4 51.15,-57.69 57.57,-68.99l29.13 -44.5c2.11,-3.36 4.78,-6.32 6.88,-9.76 35.51,-57.9 85.85,-171.76 94.08,-230.53 12.74,-90.97 13.02,-95.69 -0.69,-184.71 -4.03,-26.21 -25.83,-76.53 -40.52,-100.39l-32.4 -50.52c-10.75,-11.76 -52.84,-58.84 -66.19,-67.54 -3.22,-2.11 -17.22,-10.05 -14.85,-11.31l45.77 16.61c33.49,15.11 55.85,30.91 85.89,53.1 27.98,20.67 71.25,68.92 85.63,98.83 5.39,11.2 8.14,16.89 8.24,17.06 56.49,106.61 42.85,251.21 -0.97,360.2 -4.93,12.26 -8.16,24.53 -14.77,36.34 -13.86,24.68 -25.88,49.7 -44.66,72.78 -6.22,7.67 -10.6,16.16 -16.65,23.74 -30.47,38.19 -31.76,34.03 -62.65,66.72 -6.39,6.75 -30.51,26.92 -45.18,36.24 -8.7,5.54 -16,12.48 -24.49,18.22 -45.22,30.64 -58.83,35.86 -101.74,55.85l0 0zm-490.06 124.65c-63.45,6.7 -169.76,2 -232.31,-7.82 -10.9,-1.7 -21.82,-2.17 -32.65,-4.22 -51,-9.71 -117.92,-30.27 -162.59,-55.22 -29.05,-16.23 -30.74,-12.93 -63.89,-39.27 -47.05,-37.38 -59.54,-50.51 -94.08,-99.09 -18.84,-26.47 -35.71,-65.14 -46.55,-96.28 -32.15,-92.34 -37.23,-209.72 -15.15,-307.93 0.55,-2.45 1.04,-2.44 1.48,0.04 6.91,40.38 16.29,79.04 28.14,115.99 2.82,8.79 4.06,18.08 7.27,26.48 19.4,50.77 29.16,72.68 50.42,111.13l15.78 28.89c14.09,21.82 28.76,45.15 46.35,64.65 7.24,8.03 12.7,17.24 19.97,25.38 29.54,33.07 70.75,70.81 102.16,94.16 4.38,3.24 10.11,6.04 15.08,9.85 44.09,33.79 91.92,56.59 141.37,77.86 79.76,33.12 136.72,46.61 219.2,54.64 2.47,0.25 2.47,0.5 0,0.76l0 0zm369.72 -0.15l91.68 -12.97c55.67,-13.13 107.38,-30.92 155.14,-53.37 14.84,-6.99 29.61,-12.1 44.91,-21.21 47.52,-28.34 100.73,-60.4 139,-99.94 8.65,-8.94 18.63,-16.15 27.34,-25.25 12.33,-12.88 23.79,-24.9 33.98,-39.37 6.16,-8.72 13.83,-15.81 20.15,-24.43 38.52,-52.58 41.1,-62.59 69.41,-116.18 7.95,-15.05 30.33,-66.65 34.8,-86.4 1.39,-6.14 2.99,-12.03 4.78,-17.65 10.88,-34.19 19.82,-71.52 26.84,-111.99 2.41,-13.95 12.55,70.68 13.61,88.98 5.57,96.89 -8.29,182.58 -48.89,272.22 -18.73,37.44 -38.13,61.65 -64.17,93.34 -11.47,13.95 -49.89,44.56 -62.03,53.98 -13.7,10.62 -30.06,21.1 -46.57,28.31 -8.76,3.8 -16.64,9.28 -25.24,13.24 -51.88,23.93 -110.42,42.73 -167.79,50.02 -50.34,6.4 -72.88,10.11 -131.97,11.8 -14.38,0.41 -104.69,1.12 -115.01,-2.72 -0.63,-0.22 -0.61,-0.35 0.06,-0.42l0 0zm-301.54 -237.87c-30.82,17.56 -65.81,16.5 -99.86,3.88 -6.36,-2.48 24.37,-0.38 65.43,-21.62 26.63,-13.78 33.34,-14.91 59.07,-36.32 13.15,-10.94 25.92,-21.6 38.32,-32 5.4,-4.53 11.95,-7.71 17.93,-11.81 42.1,-28.97 95.37,-41.23 145.43,-26.98 5.23,1.49 -3.09,3.01 -12.59,10.79 -10.79,8.82 -19.67,17.04 -26.62,24.64 -35.71,39.04 -33.19,109.85 -14.27,155.51 8.24,19.92 23.78,45.3 35.61,68.73 4.12,8.13 6.57,16.6 10.83,24.37 23.33,42.49 43.25,98.78 47.58,148.29 1.12,12.72 3.56,16.08 2.69,30.88 -3.81,64.97 -25.92,118.12 -60.01,171.26 -22.06,31.64 -38.85,45.78 -65.75,72.85 -17.15,17.27 -74.51,54.15 -98.06,66.55l-138.52 69.31c-43.72,19.85 -109.58,38.91 -153.04,48.52 -13.33,2.95 59.56,-31.44 69.9,-38.22 20.93,-13.73 54.94,-32.3 72.85,-46.46 6.22,-4.93 13.7,-7.94 20.26,-12.63 26.19,-18.75 87.32,-66.98 106.85,-91.73 28.6,-36.23 44.5,-49.85 59.08,-101.06 8.31,-29.24 9.1,-90.82 -0.25,-120.98 -12.14,-39.17 -33.48,-72.58 -66.45,-98.46 -36.53,-28.67 -58.25,-6.66 -9.09,-31.6 4.13,-2.09 8.45,-5.41 12.92,-10.01 33.8,-34.64 32.03,-57.5 28,-99.97 -1.42,-15.02 -20.07,-65.47 -23.38,-59.52 -8.49,15.18 -40.08,39.56 -58.16,43.83 -13.82,3.26 -18.11,7.69 -38.74,6.43 -11.3,-0.68 14.69,-4.19 29.89,-26.12 19.74,-28.48 31.41,-44.82 43.02,-79.67 0.32,-0.97 0.05,-1.21 -0.84,-0.69zm-156.47 340.31c-12.22,5.54 -24.57,11.72 -36.93,15.2 -10.5,2.95 -15.79,4.44 -15.85,4.45 -79.51,28.47 -166.1,33.51 -244.88,1.66 -33.53,-13.57 -26.74,-8.67 -62.55,-33.17 -41.98,-28.71 -70.18,-63.16 -99.32,-105.19l-1.9 -7.15 67.9 37.87c23.4,11.65 76.29,34.13 106.59,39.24 10.41,1.75 20.9,5.38 31.43,7.67 94.92,20.47 191.55,23.14 286.88,9.66 18.55,-2.63 42.61,-9.98 31.71,-3.33 -19.04,11.65 -40.08,22.68 -63.09,33.08zm550.5 1.73c-27.44,-12.52 -43.53,-20.4 -48.26,-23.61 -27.44,-18.62 -33.08,-14.44 5.02,-8.6 98.06,15.02 212.39,13.23 306.96,-11.11l44.74 -10.94c41.15,-12.97 80.02,-30.1 116.61,-51.34 14.92,-8.67 18.57,-8.78 33.9,-19.29 9.59,-6.58 -30.15,50.72 -54.84,72.94 -6.66,5.99 -12.59,12.56 -19.49,18.36 -14.96,12.58 -53.86,41.5 -74.16,48.04 -16.36,5.27 -28.99,11.58 -47.13,16.57 -69.8,19.19 -143.13,12.03 -212.74,-12.08 -27.06,-9.37 -16.41,-3.33 -50.61,-18.93l0 0zm-738.36 155.04c-2.47,-1.23 -50.26,-28.38 -38.58,-28.63 65.64,-1.44 156.56,-18.68 217.75,-42.87 10.82,-4.28 21.95,-6.67 32.68,-11.16 19.77,-8.27 39.52,-18.06 59.28,-29.3 3.26,-1.85 3.73,-1.31 1.41,1.64 -27.48,34.95 -63,72.04 -98.38,95.13 -18.47,12.06 -54.64,27.38 -80.28,30.91 -32.48,4.47 -63.78,-0.78 -93.88,-15.72zm778.41 0.63c-31.27,-14.42 -73.43,-44.32 -93.47,-70.9 -0.16,-0.22 -45.11,-47.65 -34.13,-41.56 17.86,9.93 48.58,26.22 68.74,32.71 11.54,3.71 18.6,6.03 21.15,7 69.88,26.32 146.36,41.4 222.64,44.37 6.08,0.2 -25.8,20.78 -29.28,22.74 -50.36,28.44 -102.24,30.32 -155.65,5.65zm-147.31 -31.19c-0.37,-2.94 -4.68,-29.7 -0.17,-19 12.66,30.02 39.82,58.21 61.93,80.38 20.71,20.78 78.13,58.54 105.87,73.52 6.04,3.23 -68.94,28.32 -110.12,-6.44 -37.92,-32 -51.83,-81.42 -57.51,-128.46zm-394.08 125.92c-41.58,38.39 -118.01,11.6 -112.51,8.6 41.82,-22.86 47.4,-30.31 86.07,-56.79 19.44,-13.31 52.9,-52 64.57,-67.37 14.18,-18.67 19.69,-41.33 18.55,-27.98 -4.7,55.14 -17.37,107.23 -56.68,143.55zm70.05 226.06c-3.93,9.13 -5.56,18.65 -8.6,28.16 -9.19,28.7 -15.21,56.2 -18.02,82.51 -0.52,4.93 -1.3,4.97 -2.3,0.11 -11.49,-55.5 -15.2,-109.28 11.47,-160.29 10.55,-20.18 18.36,-30.22 34.82,-44.31 35.55,-30.42 81.12,-42.95 74.24,-37.15 -13.83,11.54 -26.38,24.08 -37.06,38.97 -6.93,9.66 -14.8,17.66 -21.18,27.87 -12.4,19.9 -23.53,41.27 -33.37,64.12zm-151.82 -709.03c-16.42,-8.01 -26.69,-10.8 -41.42,-19.58 -23.51,-14.05 -48.11,-28.14 -69.5,-45.24 -6.67,-5.32 -14,-9.31 -20.7,-14.59 -33.36,-26.35 -74.54,-67.83 -98.93,-99.22 -4.37,-5.63 -7.47,-12.33 -11.73,-17.61 -18.82,-23.36 -46.61,-72.11 -57.94,-101.81 -0.88,-2.28 -1.04,-4.97 -1.93,-7.21 -41.22,-105.83 -54.54,-223.53 -15.74,-329.85 25.26,-62.61 37.69,-76.19 82.69,-126.47 13.1,-14.64 62.2,-49.26 80.48,-59.17 35.72,-19.35 41.66,-20.59 72.97,-31.14 12.68,-4.28 -10.61,9.87 -12.35,10.97 -14.02,8.84 -69.79,68.97 -79.32,86.89 -8.62,16.2 -21.02,33.07 -30.1,51.71 -26.21,53.83 -31.04,80.76 -36.85,135.58 -5.36,50.53 1.91,119.24 16.84,167.69 15.11,49.06 51.25,140.06 80.05,184.28l46.88 70.66c54.58,65.14 53.87,66.59 121.89,126.25l64.23 43.91c12,7.6 28.89,14.28 19.23,12.44 -33.4,-6.35 -81.08,-24.99 -108.78,-38.51l0 0z"/>
    <path class="fil4" d="M1635.3 420.89c551.51,0 998.59,447.09 998.59,998.59 0,551.51 -447.09,998.59 -998.59,998.59 -551.51,0 -998.59,-447.09 -998.59,-998.59 0,-551.51 447.09,-998.59 998.59,-998.59zm0 -39.21c573.17,0 1037.8,464.65 1037.8,1037.8 0,573.17 -464.65,1037.8 -1037.8,1037.8 -573.17,0 -1037.8,-464.64 -1037.8,-1037.8 0,-573.17 464.65,-1037.8 1037.8,-1037.8z"/>
    <path class="fil5" d="M1635.76 1154.63c-48.64,-28.68 -116,-34.22 -171.3,-24.39 -9.86,1.75 -19.87,2.42 -29.21,4.7 -48.96,11.95 -126.78,30.43 -172.64,25.51 -1.46,-0.15 -2.2,-0.96 -2.2,-2.47l0 -363.35c0,-0.65 0.32,-0.99 0.97,-1.02 80.78,-4.34 132.46,-16.22 208.38,-41.04 26.04,-8.51 61.03,-12.14 87.35,-7.75 41.23,6.89 40.41,8.02 78.14,22.91 3.49,1.37 37.18,-15.55 60.33,-19.49 42.23,-7.18 47.54,-7.35 88.01,-0.55 20.48,3.44 66.47,20.9 99.51,28.36 42.46,9.61 85.19,15.45 128.17,17.55 0.95,0.03 1.43,0.53 1.43,1.48 0,118.24 0,236.33 -0.02,354.27 0,11.27 3.07,12.33 -15.12,11.93 -89.62,-2 -139.79,-27.8 -215.05,-34.46 -32.41,-2.87 -55.09,0.21 -86.07,5.18 -21.23,3.41 -41.15,12.18 -59.03,22.62 -0.56,0.32 -1.08,0.32 -1.64,0z"/>
    <path class="fil6" d="M1666.45 2647.44c-8.88,3.09 -11.01,2.63 -10.79,6.7 0.27,5.08 15.5,-1.71 33.34,-0.5 15.31,1.04 14.77,0.59 14.42,-4.11 -0.39,-5.16 -13.94,0.05 -14.19,-5.67l-3.48 -74.2c-0.21,-5.27 16.07,-2.6 13.72,-10.7 -0.23,-0.78 -0.99,-1.28 -1.79,-1.18 -44.82,5.48 -46.79,-2.27 -45.59,6.98 0.73,5.58 14.02,-2.74 14.37,8.31l1.22 72.91c-0.11,0.66 -0.57,1.22 -1.22,1.44zm92.5 -7.95c-10.95,3.94 -14.01,3.58 -12.53,8.16 0.38,1.2 1.61,1.91 2.83,1.61 15.2,-3.5 30.62,-5.89 46.25,-7.2 4.3,-0.37 3.49,-6.42 0.42,-6.49 -17.98,-0.47 -13.02,4.85 -19.39,-34.82 -0.68,-4.23 23.53,-4.88 26.68,-4.91 6.34,-0.07 5.75,10.44 10.71,10.23 2.34,-0.09 3.39,-0.91 3.12,-2.45 -5.7,-33.77 -0.3,-31.94 -8.85,-30.74 -4.9,0.68 2.67,11.46 -6.73,14.15 -4.17,1.2 -26.23,7.31 -26.85,2.74l-3.95 -28.27c-0.32,-2.28 0.65,-3.69 2.89,-4.21 8.94,-2.06 18.17,-3.67 27.71,-4.85 10.79,-1.35 10.41,17.18 19.39,10.99 2.09,-1.45 -3.04,-21.53 -4.17,-21.32 -26.94,5.06 -52.3,9.47 -80.65,11.51 -2.73,0.18 -2.88,5.24 0.09,5.56 4.85,0.51 12.74,0.42 13.14,2.81 2.07,12.44 12.07,68.04 11.31,75.69 -0.08,0.81 -0.63,1.52 -1.41,1.8zm121.45 -55.61c4.67,-36.73 -0.19,-35.29 21.67,-5 1.77,2.45 -14.67,4.81 -20.4,6.14 -0.72,0.17 -1.36,-0.43 -1.27,-1.15zm-0.86 -54.34c-4.54,29.89 -7.86,58.42 -12.48,87.61 -1.54,9.68 -14.28,8.25 -11.34,15.01 1.13,2.59 9.04,-3.13 19.58,-4.87 16.63,-2.74 17.32,-1.64 16.24,-6.38 -1.2,-5.24 -16.37,3.64 -15.22,-6.56 2.99,-26.34 -3.27,-19.03 29.83,-27.03 2.92,-0.7 13.67,16.26 15.81,19.12 3.59,4.77 -13.77,5.24 -11.22,11.6 0.48,1.11 1.73,1.63 2.88,1.22 13.91,-5.04 28.29,-8.51 43.15,-10.38 2.57,-0.32 2.79,-4.33 -0.46,-4.47 -4.55,-0.19 -10.05,0.87 -13.22,-3.14l-35.9 -50.49c-5.77,-7.71 -12.62,-14.38 -18.06,-22.54 -1.55,-2.36 -9.36,-0.09 -9.59,1.31zm-565.25 46.39c20.98,-29.67 16.77,-31.3 21.38,5.28 0.44,3.51 -14.17,-1.62 -20.62,-3.22 -0.91,-0.23 -1.32,-1.3 -0.76,-2.06zm-4.73 8.81c3.47,0.83 26.84,5.24 27.24,7.67 4.11,25.08 7.02,26.43 -8.7,24.62 -3.35,-0.39 -5.8,4.79 -2.59,5.29 14.65,2.37 29.01,6.02 43.07,10.94 4.18,1.46 4.78,-4.86 1.65,-6.16 -4.43,-1.85 -8.86,-3.27 -9.6,-8.91 -3.79,-28.93 -8.2,-58.33 -13.24,-88.2 -0.38,-2.13 -6.71,-3.88 -7.82,-2.13 -5.54,8.77 -12.65,16.17 -18.62,24.53 -11.65,16.37 -23.6,33.02 -35.86,49.9 -4.45,6.13 -18.99,0.31 -15.65,5.91l32.76 8.68c2.86,1.08 5.21,-4.09 2.08,-5.5 -14.16,-6.37 -13.42,-2 3,-25.78 0.56,-0.8 1.32,-1.08 2.27,-0.85zm-99.49 -86.33c0.58,-3.01 12.16,3.35 13.07,-0.43 1.92,-7.96 0.03,-1.07 -34.02,-17 -14.7,-6.88 -11.66,1.72 -9.66,2.52 4.31,1.73 7.13,5.69 8.41,11.85 3.44,16.57 7.4,32.69 11.91,48.3 1.26,4.42 -6.17,21.88 -8.62,28.81 -2.11,5.97 -17.26,-4.53 -18.34,2.84 -0.23,1.52 0.42,2.45 1.92,2.81 41.36,9.8 43.76,20.57 46.8,12.77 1.9,-4.86 -12.07,-5.92 -10.14,-10.84 19.69,-50.18 -6.8,-15.27 50.84,-58.98 11.06,-8.4 13.54,3.35 17.45,-6.51 0.28,-0.72 0.05,-1.18 -0.69,-1.37 -27.95,-7.07 -28.44,-14.91 -29.53,-6.03 -0.46,3.68 12.24,5.11 8.06,8.76 -3.83,3.35 -38.03,32.28 -39.03,25.23l-8.44 -42.73zm784.54 8.45c1.92,-0.67 3.23,-0.06 3.93,1.86 7.85,21.31 18.08,44.28 24.16,65.18 1.87,6.39 -14.65,8.63 -13.72,16.06 0.62,4.89 11.24,-2.74 24,-6.97 9.24,-3.06 18.05,-5.94 26.44,-8.62 3.07,-0.98 1.12,-6.47 -3.34,-5.71 -6.36,1.08 -10.38,2.86 -11.79,-0.83l-25.83 -67.26c-1.46,-3.79 11.28,-6.32 19.73,-9.17 6.11,-2.07 14.07,18.5 18.07,8.41l-6.96 -24.01c-0.75,-3.32 -6.32,-1.71 -7.01,2.51 -0.27,1.61 -1.37,2.96 -2.91,3.54l-67.45 24.56c-2.94,1.06 -12.11,-8.07 -11.85,-0.13l1.76 25.21c8.42,4.45 5,-13.54 15.78,-18.11 5.74,-2.43 11.4,-4.6 16.97,-6.52zm-852.61 -37.29c10.15,1.67 11.98,3.18 12.98,-1.36 0.35,-1.69 -0.27,-2.81 -1.91,-3.37 -36.92,-12.52 -37.93,-23.64 -42.09,-14.61 -2.31,5.02 11.52,5.56 9.55,11.17 -6.36,18.1 -22.59,39.02 -30.93,65.39 -2.32,7.34 -15.71,-0.01 -16.72,2.21 -2.82,6.14 -5.03,3.04 19.8,12.49 20.46,7.8 18.89,15.05 23.01,6.32 2.22,-4.71 -12,-5.3 -10.07,-9.23l34.1 -68.01c0.55,-0.83 1.31,-1.18 2.28,-1zm-95.81 -50.95c17.23,8.72 6.77,25.57 10.09,28.31 1.25,1.02 4.69,3.56 5.89,1.61 1.46,-2.36 10.21,-17.8 8.18,-20.15 -12.41,-14.36 -29.84,-22.71 -48.25,-15.81 -14.68,5.5 -21.83,27.25 -6.75,44.57 11.13,12.79 23.55,25.97 12.09,36.99 -8.06,7.75 -37.92,1.87 -32.36,-27.66 0.51,-2.7 -5.61,-5.78 -6.7,-3.89l-9.38 18.01c22.34,27.05 56.11,34.85 69.68,3.99 6.7,-15.22 -5.69,-29.32 -16.34,-39.97 -13.66,-13.64 -4.94,-35.52 13.87,-26.01zm1184.52 -22.83c7.84,-8.34 9.28,-8.09 7.32,-12.26 -0.72,-1.5 -1.77,-1.76 -3.12,-0.78 -35.19,25.7 -43.78,19.62 -37.19,27.84 2.79,3.48 11.11,-6.56 14.36,-2.38 17.78,22.86 25.16,40.2 38.79,63.22 3.24,5.47 -10.44,7.64 -6.71,13.85 2.02,3.36 5.85,-2.8 14.54,-7.19 27.79,-14.02 29.8,-12.43 26.29,-18.36 -2.59,-4.36 -12.77,6.4 -15.24,2.3l-39.25 -64.15c-0.46,-0.74 -0.38,-1.45 0.21,-2.09zm60.7 -28.75c-11.39,-11.34 7.79,-28.94 22.79,-21.17 4.62,2.39 8.57,6.08 13.76,2.04 2.91,-2.26 -13.57,-18.19 -15.17,-17.6 -60.82,22.18 -31.44,70.06 3.11,60.61 11.71,-3.2 43.54,-15.76 42.23,7.53 -0.69,12.26 -12.48,18.27 -23.36,19.05 -11.41,0.82 -16.23,-8.95 -24.35,-3.5 -1.88,1.25 9.06,13.05 12.01,16.74 3.4,4.22 54.26,-15.97 43.89,-45.51 -12.26,-34.94 -43.29,-17.94 -60.92,-14.25 -5.52,1.16 -10.17,-0.15 -14,-3.94zm-1393.79 50.19c-2.57,3.49 -14.54,-6.8 -19.88,-2.59 -4.52,3.58 9.04,6.45 21.17,17.03 6.27,5.45 12.81,10.64 19.66,15.54 3.05,2.19 5.89,-2.46 3.17,-5.47 -4.3,-4.75 -9.19,-8.28 -7.1,-11.07l44.85 -59.66 15.63 10.38c7,5.15 -5.35,18.55 2.21,21.01 1.85,0.59 3.32,0.15 4.4,-1.32 11.77,-16.01 20.28,-23.16 11.86,-24.43 -6.25,-0.94 1.48,11.8 -35.88,-18.61 -8.45,-6.87 -32.76,-17.9 -32.61,-22.79 0.45,-14.2 -4.58,-7.02 -24.05,7.15 -2.25,1.64 -0.55,6 2.76,5.25 5.18,-1.18 13.72,-4.43 18.4,-2.09 2.67,1.33 21.64,9.77 18.86,13.77 -11.5,16.43 -23.26,32.67 -35.29,48.73 -2.3,3.06 -5.69,5.8 -8.16,9.15zm-86.44 -109.41c31.52,-16.06 28.65,-19.05 16.34,14.46 -1.39,3.77 -11.07,-6.88 -16.67,-11.89 -0.82,-0.74 -0.66,-2.07 0.32,-2.57zm11.7 24.66c-8.42,26.5 -9.17,24.89 -20.19,18.63 -3.76,-2.15 -7.27,1.26 -4.91,3.06 12.46,9.34 23.9,19.43 34.3,30.29 2.82,2.96 5.09,-3.72 0.86,-9.01 -1.75,-2.19 -2.12,-4.78 -1.11,-7.73 2.19,-6.4 3.27,-12.59 5.88,-18.97 7.53,-18.39 14.7,-37.75 21.49,-58.08 3.38,-10.11 6.5,-6.25 -1.54,-13.63 -0.5,-0.46 -1.24,-0.54 -1.83,-0.2 -8.88,5.04 -18.27,8.54 -27.05,13.01 -18.97,9.68 -37.81,19.14 -56.51,28.4 -6.08,3.03 -13.13,-9.1 -16.86,-2.47 -1.71,3.06 10.58,7.64 15.78,14.81 12.8,17.62 14.54,6.79 13.05,5.34 -12.28,-12 -4.7,-12.04 16.04,-22.83 2.2,-1.15 22.91,18.32 22.58,19.39zm1609.88 10.4c-2.31,6.28 -10.19,10.73 -7.39,15.1 3.06,4.79 6.38,-3.69 13.83,-9.94 5.79,-4.86 29.06,-21.45 27.54,-24.23 -4.11,-7.56 -13.47,7.08 -17.92,3.04 -10.24,-9.33 -24.28,-29.14 -39.64,-42.52 -1.92,-1.67 -13.03,-11.23 -10.33,-13.59 19.49,-17.06 13.15,-15.8 31.63,-7.71 2.24,0.98 6.54,-3.08 2.8,-7.04 -12.21,-12.91 -18.47,-23.81 -21.44,-15.43 -0.85,2.41 3.59,4.87 -1.58,9.33 -17.44,15.05 -34.66,30.25 -51.63,45.56 -2.41,2.17 -15.16,-2.84 -11.63,4.57 6.07,12.71 9.81,26.75 15.38,20.78 1.96,-2.11 -2.9,-13.79 3.41,-20.86 5.95,-6.67 13.71,-16.71 17.78,-12.53 16.7,17.08 32.89,34.47 48.58,52.15 0.79,0.91 1.04,2.19 0.62,3.33zm99.18 -93.09c-0.81,0.67 -2,0.65 -2.79,-0.05l-55.79 -49.88c-4.34,-3.9 8.35,-12.17 2.45,-16.81 -1.08,-0.85 -2.06,-0.76 -2.93,0.31 -28.06,34.01 -36.14,30.68 -28.71,36.43 4,3.09 9.96,-9.31 13.59,-6.03 5.17,4.64 11.24,8.01 16.32,12.65 5.65,5.17 39.11,35.27 40.24,39.6 1.06,4.13 -8.01,10.41 -3.64,13.97 4.56,3.7 8.62,-10.7 33.19,-31.02 3.6,-2.98 -1.66,-7.61 -4.47,-5.28l-7.46 6.1zm-1801.66 1.44c8.44,-18.78 17.22,-36.62 26.28,-53.55 4.02,-7.44 13.27,6.4 15.49,4.36 3.64,-3.34 5.6,-1.61 -9.25,-16.24 -22.42,-22.1 -18.13,-27.54 -24.33,-21.51 -3.51,3.42 6.16,7.59 3.64,13.79 -10.85,26.58 -27.05,55.35 -38.91,84 -1.54,3.75 2.15,7.51 5.92,6.01l83.47 -31.74c8.36,-2.61 15.71,8.32 19.25,2.17 0.38,-0.65 0.22,-1.46 -0.34,-1.94 -25.13,-20.95 -22.57,-28.44 -28.02,-23.18 -3.87,3.74 11.38,11.67 3.46,15.49 -4.13,2 -58.8,27.23 -56.65,22.33zm1851.79 -72.72c-14.67,-0.64 -32.29,-14.41 -43.13,-23.89 -24.39,-21.33 -1.18,-60.24 33.73,-44.37 57.4,26.11 38.78,69.58 9.4,68.26zm39.19 -23.41c-3.84,1.08 9.25,-18.77 -6.86,-42.52 -12.83,-18.9 -28.83,-22.62 -51.24,-20.7 -32.45,2.78 -57.86,45.74 -41.03,75.27 14.82,25.99 43.15,34.34 70.28,20.26 22.99,-11.91 53.98,-19.24 69.91,-42.43 1.32,-1.91 -5.21,-6.48 -6.86,-4.89 -7.9,7.63 -22.78,11.66 -34.19,15.02zm-1964.98 8.92c-23.67,10.35 -45.72,-8.13 -40.03,-28.33 7.94,-28.18 66.82,-64.44 78.92,-20.38 6.49,23.67 -20.03,40.48 -38.89,48.71zm-46.15 -10.39c37.36,54.98 92.21,21.99 96.78,-6.94 8.42,-53.18 -42.2,-76.94 -72.16,-62.79 -6.99,3.3 -12.87,7.06 -17.65,11.31 -16.45,14.52 -19.14,40.49 -6.97,58.42zm1996.41 -133.35c-5.19,-2.63 9.68,-28.24 24.94,-20.3 16.33,8.5 11.31,19.51 4.47,32.54 -0.7,1.33 -2.36,1.87 -3.69,1.16l-25.72 -13.39zm68.36 -1.24c17.42,8.85 15.41,23.32 4.13,36.1 -1.64,1.85 -3.58,2.19 -5.82,1 -9.78,-5.08 -20.19,-10.77 -31.2,-17.02 -1.89,-1.08 -2.25,-2.53 -1.11,-4.38 7.69,-12.25 18.01,-23.8 34,-15.7zm-22.55 -13.74c0.61,-11.66 -0.55,-19.99 -12.52,-24.34 -20.87,-7.62 -35.64,22.77 -44.02,38.86 -8.74,16.81 -19.58,25.64 -10.44,26.29 3.62,0.26 5.51,-11.32 11.59,-8.34l65.54 36.98c5.83,3.75 -4.73,13.66 -0.33,15.9 6.15,3.12 3.94,0.59 16.15,-21.07 6.35,-11.25 14.36,-22.26 19.12,-39.55 6.89,-25.06 -22.42,-45 -43.06,-23.84 -1.44,1.48 -2.11,1.2 -2.02,-0.88zm-2075.74 44.75c1.63,-14.62 19.67,-66.74 25.4,-85.12 1.55,-4.99 2.72,-6.62 0.46,-10.64 -4.47,-7.96 -9.02,-15.95 -13.61,-23.99 -1.58,-2.79 -6.05,0.24 -4.99,2.85 2.58,6.3 4.51,13.93 -1.48,18.93 -5.84,4.89 -11.87,8.6 -18.13,11.15 -50.8,20.69 -44.4,31.15 -52.81,12.35 -1.55,-3.47 -7.6,0.06 -5.86,2.89 17.56,28.52 12.34,36.63 20.64,31.98 5,-2.8 -7.58,-13.64 -1.81,-17.26 4.73,-2.96 57.01,-34.68 55.11,-29.09 -2.02,5.91 -1.71,12.33 -3.39,18.19l-25.5 82.97 4.86 5.92 68.59 -39.25c17.17,-9.64 14.86,7.98 21.69,3.46 2.99,-1.99 -0.92,-3.42 -2.92,-7.86 -0.86,-1.95 -11.89,-29.34 -16.32,-20.8 -1.66,3.22 5.5,11.96 0.91,15.09 -8.77,5.97 -18.24,9.74 -27.36,15.15l-23.47 13.07zm2140.04 -170.45c12.31,4.47 35.45,14.74 36.36,30.29 3.63,61.53 -117.38,16.81 -75.93,-25.75 10.62,-10.91 26.11,-9.42 39.57,-4.53zm-25.22 78.23c21.81,8.81 47.22,0.83 60.65,-20.97 3.59,-5.82 4.87,-12.67 6.94,-19.16 4.87,-15.24 0.5,-37.65 -11.51,-48.32 -31.05,-27.64 -69.14,-13.74 -84.42,21.75 -12.04,28.02 -0.22,55.18 28.34,66.71zm-2169.93 -130.74c-1.02,3.29 -2.41,6.57 -4.16,9.81 -2.62,4.82 -2.84,10.24 -5.09,15.05 -8.29,17.64 -16.18,35.58 -25.07,52.94 -10.41,20.33 -9.39,16.47 -5.93,24.94 1.72,4.22 57.7,-25.23 80.84,-30.45 9.91,-2.23 10.74,10.11 15.24,7.75 3.72,-1.96 -8.25,-26.36 -10.54,-31.58 -1.15,-2.62 -5.88,-1.14 -5.28,2.63 1.7,10.9 5.96,12.31 -22.97,22.05 -31.62,10.66 -38.73,22.05 -26.22,0.06 1.79,-3.12 1.98,-6.63 3.37,-9.67 9.96,-21.93 19.97,-43.28 30.06,-64 2.05,-4.18 -7.4,-23.71 -10.64,-31.78 -0.95,-2.37 -6.32,-0.91 -5.44,2.21 2.06,7.4 2.42,16 -5.76,19.82 -12.54,5.86 -26.68,11.52 -42.44,16.97 -7.53,2.61 -14.86,3.61 -22.29,6.34 -7.92,2.89 -5.37,-12.15 -11.81,-10.09 -3.68,1.19 -0.33,3.67 1.83,10.19 9.85,29.7 6.56,28.91 13.3,26.06 4.91,-2.09 -5.49,-13.7 0.2,-16.76 24.83,-13.38 32.36,-11.09 57.63,-23.48 0.67,-0.32 1.39,0.29 1.18,0.99zm2272.44 -26.03c-0.41,0.49 -1.06,0.7 -1.67,0.51l-73.17 -22.52c-6.08,-1.84 3.95,-18.62 -6.53,-15.98 -0.66,0.17 -1.11,0.59 -1.27,1.26 -4.02,14.81 -8.78,29.66 -14.28,44.48 -0.88,2.34 4.35,3.68 5.86,1.67 9.01,-11.99 5.94,-12.67 19.71,-8.59 20.7,6.18 41.54,12.67 62.5,19.44 4.72,1.52 -3.63,14.88 1.2,16.07 1.91,0.47 4.56,1.36 5.08,-0.74 4.34,-17.48 9.4,-34.51 15.17,-51.09 3.25,-9.37 14.47,-31.74 10.16,-33.4 -15.8,-6.12 -26.35,-12.91 -26.71,-4.55 -0.25,5.79 17.42,7.63 11.56,30.46l-7.6 22.99zm-2282.56 -64.69l-72.33 19.58c-10.19,2.89 -6,-12.56 -15.3,-10.01 -1.29,0.35 -1.69,1.14 -1.18,2.36 15.1,36.17 6.33,44.67 15.83,41.64 5.51,-1.75 -2,-13.54 2.32,-14.68 5.49,-1.43 11.63,-2.12 16.61,-3.4 17.98,-4.54 37.06,-9.51 57.27,-14.88 3.89,-1.05 5.58,12.29 10.5,10.93 8.22,-2.27 -0.24,-2.31 -8.12,-44.94 -0.5,-2.69 -5.67,-1.59 -5.21,2.19 0.6,5.01 2.18,10.15 -0.39,11.2zm2258.37 -383.71c0.03,-0.55 0.47,-0.99 1.02,-1.03l88.68 -6.96c5.85,-0.47 4.75,15.5 9.66,15.31 10.75,-0.41 0.85,-0.14 0.87,-53.1 0.01,-2.34 -8.01,-1.67 -8.06,0.95 -0.29,14.48 3.98,15.23 -22.99,16.06 -24.94,0.74 -46.68,1.83 -65.24,3.21 -10.14,0.76 -7.34,-14.22 -12.29,-13.53 -10.89,1.49 1.98,1.67 -0.63,51.56 -0.24,4.76 7.82,3.89 8.12,-0.52l0.84 -11.96zm-2403.54 -36.57c-3.74,-0.45 -0.63,-33.52 21.36,-31.01 23.32,2.66 20.71,19.14 19.1,33.98 -0.1,0.93 -0.93,1.6 -1.87,1.5l-38.6 -4.47zm48.85 -33.65c-2.83,-10.48 -7.38,-20.91 -19.52,-22.97 -27.39,-4.62 -37.65,18.78 -38.16,41.03l-3.56 50.9c0.18,2.38 6.13,2.53 6.66,-0.13 2.73,-13.79 0.28,-13.18 11.83,-11.89 26.98,3.1 53.51,6.12 79.6,9.09 9.59,1.08 -0.96,15.44 9.14,16.95 1.35,0.2 2.54,-0.86 2.52,-2.23 -0.73,-43.93 12.77,-56.22 -0.35,-54.34 -3.85,0.56 -3.59,16.64 -9.78,16.14l-36.32 -2.88c-4.37,-0.34 -3.47,-15.05 6.28,-18.69 4.83,-1.79 48.17,-17.32 48.17,-19.59 0.02,-21.37 8.75,-40.95 -0.19,-35.53 -4.03,2.44 -3.61,8.98 -8.52,11.41 -16.54,8.12 -32,15.9 -46.42,23.32 -0.54,0.26 -1.21,-0.02 -1.38,-0.61zm2431.68 -51.94c1.12,5.92 2.28,12.69 3.52,20.32 1.46,9.05 -18.06,10.09 -15.98,15.93 0.64,1.8 1.18,4.88 4.15,4.36l29.87 -5.31c3.21,-0.56 2,-6.46 -1.08,-6.24 -3.71,0.24 -5.93,-1.95 -6.7,-6.57 -2.66,-15.94 -5.24,-30.87 -7.78,-44.83 -2.04,-11.16 -4.72,-22.16 -6.45,-33.37 -0.98,-6.36 7.72,-5.16 5.27,-12.5 -0.77,-2.32 -26.12,-4.36 -29.84,-4.83 -2.5,-0.31 -3.17,6.16 -0.6,7.58 17.5,9.7 15.96,10.05 20.12,35.92 0.17,1.06 -0.51,2.09 -1.57,2.32 -27.54,6.12 -54.68,11.16 -81.49,15.11 -5.57,0.82 -8.08,-21.56 -15.76,-18.53 -1.5,0.61 -2.04,1.69 -1.59,3.27 7.47,26.61 7.86,48.93 10.46,57.57 0.52,1.71 5.18,1.79 5.38,-2.43 0.37,-7.53 -1.16,-13.72 3.52,-14.59l83.12 -15.52c1.6,-0.3 3.14,0.74 3.43,2.33zm-2418.82 -54.47l-39.42 -8.96c-4.05,-0.92 7.67,-37.17 9.7,-42.76 2.88,-7.91 22.33,-7.02 23.14,-10.65 1.51,-6.77 4.06,-4.29 -23.24,-10.4 -10.89,-2.45 -13.57,68.36 -27.36,100.54 -1.54,3.6 6.07,5.98 7.04,2 0.65,-2.67 4.03,-14.42 8.42,-13.44l41.97 7.49c14.26,3.21 28.6,6.62 43.02,10.22 6.33,1.58 -0.91,20.49 2.47,21.26 8.69,2.01 3.23,3.05 11.42,-31.53 5.71,-24.11 11.89,-48.04 18.52,-71.81 0.25,-0.85 -0.18,-1.75 -1,-2.11 -27,-11.82 -31.53,-16.85 -30.89,-6.47 0.18,3.03 17.27,10.89 16.87,23.78 -0.4,13.18 -3.17,26.68 -8.33,40.51 -1.04,2.84 -3.06,3.9 -6.03,3.19 -3.34,-0.79 -37.52,-7.22 -37.06,-9.88 1.8,-10.44 3.88,-20.05 6.25,-28.81 3.06,-11.41 18.86,-1.68 20.02,-8.49 0.32,-1.86 0.91,-3.99 -2.07,-4.39l-39.52 -6.75 -0.79 4.71c14.18,7.33 18.94,2.88 8.64,41.67 -0.25,0.93 -0.84,1.28 -1.75,1.06zm2381.28 -121.23c2.22,5.86 14.27,40.27 10.53,45.57 -12.23,17.39 -15.16,9.17 -12.72,19.16 0.77,3.18 16.88,-3.86 23.45,-6.13 4.35,-1.49 -0.17,-14.88 -1.17,-17.92l-22.17 -72.72c-3.39,-15.94 -1.27,-14.93 -7.95,-13.12 -4.79,1.29 4.32,17.67 -0.32,19.74l-82.08 26.94c-12.48,3.88 -10.82,-18.02 -16.27,-16.48 -1.75,0.5 -4.49,0.82 -3.85,2.93 4.18,13.96 9.93,27.11 13.9,40.7l17.58 60.67c0.32,0.87 0.97,1.26 1.91,1.16 35.4,-3.84 31.3,-1.5 28.86,-9.45 -1.71,-5.57 -20.36,4.52 -29.68,-18.8 -4.83,-12.07 -7.99,-23.01 -9.47,-32.84 -0.45,-2.98 0.81,-4.91 3.8,-5.79 10.82,-3.2 21.97,-6.63 33.41,-10.3 2,-0.65 3.37,0.02 4.07,2.02 11.73,33.11 10.85,31.31 -3.74,39.47 -2.94,1.64 -2.37,7.86 1.26,6.75 4.66,-1.42 39.49,-10.77 39.97,-13.39 2.1,-11.48 -16.6,2.11 -21.32,-9.34 -0.86,-2.07 -11.73,-27.15 -8.42,-28.18l38.32 -11.68c0.88,-0.26 1.79,0.19 2.12,1.02zm-2286 -80.51c0.32,0.46 0.25,0.82 -0.26,1.06 -18.51,8.96 -37.08,17.58 -55.72,25.85 -4.45,1.98 -10.2,3.12 -13.7,4.84 -7.26,3.57 -33.23,14.72 -34.53,18.3l-12.37 33.69c-0.74,2.08 5.16,3.88 6.32,1.75 8.8,-16.03 14.5,-16.68 30.54,-10.37l65.36 24.55c6.69,3.44 -7.42,17.06 -0.32,18.8 10.1,2.46 1.51,-5.21 11.46,-23.14 10.7,-19.29 9.28,-19.14 3.87,-20.45 -6.68,-1.62 -6.24,16.83 -12.83,14.78 -23.26,-7.22 -45.81,-15.04 -67.6,-23.48 -6.85,-2.69 88.57,-43.41 108.47,-52.09 5.95,-2.6 6.69,-10.74 4.73,-11.47 -32.11,-11.85 -62.82,-22.64 -92.11,-32.38 -8.91,-2.96 -0.59,-16.53 -5.03,-18.05 -2.43,-0.84 -4.15,-1.94 -4.78,0.09l-11.14 36.03c-0.86,2.79 4.61,4.09 5.57,1.87 2.62,-6.06 4.8,-12.83 10.81,-11.13 3.36,0.94 61.27,18.19 63.28,20.95zm2158.35 7.02c-0.59,-2.3 0.17,-3.97 2.33,-4.98l75.45 -34.88c4.61,-2.59 7.29,9.02 12.47,21.06 2.93,6.84 -15.39,14.58 -11.46,20.64 1.31,2.04 2.95,3.45 5.48,2.32l28.65 -13.79c-0.75,-9.4 -7.83,-0.57 -12.22,-10.1 -7.95,-17.34 -15.63,-34.29 -23.08,-50.86 -3.27,-7.29 -5.04,-14.69 -8.45,-21.9 -1.63,-3.47 7.17,-13.45 1.01,-12.86 -23.31,2.23 -33.56,-1.8 -31.51,7.15 0.98,4.25 18.09,1.68 23.67,13.93 2.81,6.17 10.77,21.04 7.38,22.64 -11.76,5.45 -23.41,10.79 -34.91,16 -8.74,3.93 -17.95,5.99 -26.65,10.69 -19.88,10.73 -18.15,6.41 -27.34,-4.85 -2.37,-2.91 -11.21,-4.25 -8.31,0.89 9.95,17.65 16.11,35.14 23.34,53.58 1.29,3.32 7.41,1 6.4,-4.37 -0.69,-3.64 -1.45,-7.07 -2.27,-10.32zm-2190.94 -103.55l73.27 38.41c10.61,5.63 8.62,5.25 2.47,22.11 -0.89,2.44 5.35,3.96 6.55,1.24 8.39,-19.14 10.77,-26.69 23.64,-49.01 3.61,-6.26 27.86,-42.85 24.92,-45.24l-23.16 -18.69c-3.27,-2.64 -6.33,4.4 -3.8,7.33 18.04,20.89 4.81,38.7 -9.91,61.26 -1.34,2.04 -4.05,2.67 -6.13,1.43 -10.58,-6.31 -21.47,-12.15 -32.7,-17.51 -1.04,-0.51 -1.32,-1.27 -0.76,-2.3 18.09,-33.78 11.84,-30.55 31.94,-25.68 2.96,0.72 4.97,-4.69 2.63,-5.96l-35.35 -18.87c-2.63,-1.42 -5.57,4.44 -3.01,6.36 4.47,3.33 12.48,8.6 9.81,15.15 -1.15,2.82 -11.82,29.3 -15.22,27.36 -3.66,-2.1 -36.13,-18.49 -34.91,-20.97l21.31 -39.32c5.06,-6.03 24.79,2.65 25.95,-5.49l-21.8 -12.48c-5.22,-2.71 -12.79,16.37 -16.06,22.53l-29.43 56.41c-11.33,14.78 -9.96,12.11 -4.13,15.88 3.2,2.08 9.2,-15.78 13.87,-13.94zm2140.16 -2.97c17.48,-9.77 34.62,-19.3 51.4,-28.59 27.59,-15.29 24.67,-21.36 36.5,-6.32 2.29,2.9 9.51,0.24 6.97,-3.5 -30.47,-44.84 -20.96,-48.23 -30.82,-41.99 -4.05,2.56 7.01,13.67 2.27,16.33 -21.75,12.12 -43.32,23.94 -64.71,35.45 -11.7,6.3 -10.3,12.38 -23.2,-2.39 -1.56,-1.79 -7.44,1.08 -5.91,3.23 30.65,43.08 20.42,50.05 30.06,42.81 3.65,-2.75 -6.46,-12.81 -2.56,-15.04zm1.26 -153.36c16.26,-6.66 31.13,15.26 22.14,29.21 -5.03,7.8 -8.99,8.59 -3,15.96 1.96,2.41 21.86,-14.54 21.14,-16.88 -21.13,-68.03 -82.05,-42.83 -70.91,3.14 3.84,15.86 13.55,42.69 -7.78,45.43 -12.74,1.64 -39.62,-16.79 -17.87,-48.04 1.24,-1.78 -3.4,-7.18 -5.1,-5.99 -6.08,4.22 -18.92,11.43 -18.14,14.65 2.59,10.86 6.77,21.32 12.58,31.39 18.6,32.25 73.66,21.47 64.65,-24.28 -2.31,-11.74 -10.54,-39.33 2.28,-44.59zm-2053.01 30.1c-11.54,-5.86 -8.63,-17.35 -2.59,-26.16 9.65,-14.06 27.78,-2.2 30.43,-5.53 4.63,-5.83 9.93,-5.48 -18.12,-18.35 -2.78,-1.28 -44.35,34.33 -19,63.13 21.8,24.77 47.24,1.38 66.56,-11.76 15.99,-10.86 28.32,2.29 26.07,16.13 -2.06,12.63 -13.58,25.44 -27.42,24.01 -15.47,-1.58 -11.05,-5.11 -16.81,3.71 -1.49,2.28 17.43,12.62 19.87,14.19 3.91,2.51 24.47,-19.69 30.23,-32.89 13.07,-29.9 -14.33,-50.4 -30.86,-49.6 -21.9,1.06 -42.41,31.21 -58.37,23.12zm80.07 -138.97c-4.52,-2.61 -52.03,32.86 -21.53,64.71 8.94,9.33 25.27,8.49 33.81,5.99 18.4,-5.37 42.39,-31.76 53.33,-10.48 6.77,13.2 -5.68,29.17 -18.36,32.91 -11.09,3.29 -21.08,-4.4 -23.27,-1.76 -5.83,7.02 -7.51,2.96 14.67,20.01 1.22,0.93 2.89,0.93 4.11,0 17.22,-13.22 34.45,-26.29 33.84,-50.67 -0.3,-12 -10.75,-23.06 -20.62,-28.39 -14.61,-7.88 -31.91,2 -45.07,11.02 -43.41,29.73 -42.37,-44.13 1.72,-25.07 3.48,1.5 10.32,-4.86 5.77,-7.52l-18.41 -10.75zm1902.61 2.3c2.87,-2.32 24.01,22.63 6.37,36.86 -10.42,8.41 -22.45,8.13 -30.59,-1.95 -3.29,-4.08 -8.31,-8.67 -6.22,-10.35l30.44 -24.56zm-11.36 58.89c0.83,-2.71 8.46,6.21 20.19,5.25 25.82,-2.11 31.43,-34.63 12.65,-54.74 -6.94,-7.42 -14.54,-13.87 -20.83,-22.36 -5.1,-6.9 -10.73,-13.73 -16.91,-20.5 -2.2,-2.43 -7.37,1.68 -5.54,4.28 3.73,5.26 8.34,9.74 5.47,12.29 -10.25,9.03 -20.06,17.76 -31.85,25.62 -14.38,9.57 -35.23,35.85 -40.91,31.25 -8.26,-6.72 -9.06,-9.17 -13.01,-6.11 -4.59,3.56 10.83,12.64 23.34,29.49 6.67,8.98 11.33,16.8 15.11,12.77 5.18,-5.54 -8.52,-15.17 -4.65,-18.63l28.63 -25.38c3.22,-2.86 11.78,9.83 10.06,14.27 -4.21,10.86 -8.99,21.58 -14.38,32.13 -1.33,2.59 -8.85,17.97 -6.91,19.79 18.17,16.99 22.08,32.06 25.55,26.71 3.43,-5.28 -4.36,-11.07 -1.31,-19.97 5.23,-15.18 10.33,-30.58 15.3,-46.15zm-1794.23 -80.23c-18.31,-40.68 -22.58,-36.4 17.27,-18.45 3.04,1.37 -10.74,14.07 -15.15,18.8 -0.63,0.66 -1.73,0.49 -2.12,-0.34zm5.42 9.51c2.67,-2.88 20.12,-23.65 22.57,-22.6 33.45,14.39 31.63,9.22 20.47,26.38 -1.15,1.76 2.83,5.92 4.3,4.26 12.16,-13.69 24.47,-26.38 36.97,-38.04 2.62,-2.44 -2.73,-6.58 -5.27,-4.7 -7.05,5.2 -6.96,7.31 -15.7,3.47 -12.55,-5.54 -25.49,-11.87 -38.66,-15.91l-57.29 -23.82c-2.4,-1.01 -8.46,5.21 -7.55,7.53 3.71,9.59 8.89,18.63 13.05,28.25 10.83,25 20.62,46.71 29.43,65.14 6.43,13.41 -11.61,18.41 -2.52,23.57 3.53,2.01 8.41,-10.92 14.53,-16.02 14.49,-12.05 16.76,-12.42 13.36,-16.59 -4.11,-5.02 -13.79,11.64 -17.49,3.77 -1.55,-3.31 -12.18,-22.59 -10.2,-24.7zm1660.21 -59.19c0.93,-1 1.91,-1.04 2.91,-0.13 23.05,20.92 27.43,20.07 15.6,36.53 -2.02,2.81 2.56,7.7 5.11,4.7 8.2,-9.65 17.3,-19.47 27.24,-29.43 1.74,-1.74 -2.51,-5.69 -4.52,-4.08 -15.16,12.22 -25.07,2.94 -38.74,-13.89 -1.95,-2.4 26.54,-32.77 27.38,-32.07 11,9.08 21.54,19.21 31.6,30.34 6.56,7.26 -4.54,22.57 -1.89,24.76 5.43,4.47 1.66,5.81 19.4,-13.78 3.21,-3.56 -8.92,-15.31 -11.04,-17.27l-42.38 -36.95c-23.51,-16.52 -16.41,-27.68 -24.9,-18.73 -3.52,3.7 13.86,10.91 7.19,19.17l-54.09 59.65c-11.05,12.06 -18.41,-8.69 -23.14,-3.67 -4.77,5.07 -3.08,1.03 14.55,17.28 18.71,17.22 35.57,33.61 50.59,49.2 0,0 10.38,10.7 12.98,8.55 4.69,-3.9 26.88,-15.63 23.91,-18.36l-5.69 -3.46c-8.18,4.24 -19.26,7.49 -27.58,2.18 -4.33,-2.75 -36.52,-25.58 -30.79,-33.18l26.3 -27.37zm-1488.27 -78.4c-4.61,0.95 -110.32,-17.23 -114.39,-14.04l-28.27 22.01c-2.39,1.88 1.96,6.4 4.34,4.97 20.64,-12.46 23.96,0.11 37.66,14.99l34.7 48.5c3.54,6.58 -13.21,11 -10.35,14.35 2.34,2.74 2.75,5.41 13.63,-3.67 20.17,-16.86 29.85,-16.62 25.66,-23.12 -4.54,-7.06 -14.92,10.44 -20.34,4.43 -4.63,-5.16 -40.72,-47.43 -45.07,-55.88 -0.37,-0.7 -0.15,-1 0.63,-0.95 38.87,3.19 74.14,9.09 112.91,13.93 7.18,0.89 11.52,1.94 16.75,-4.13 2.96,-3.41 -52.93,-65.08 -61.89,-77.55 -6.73,-9.36 10.8,-14.14 3.84,-21.52 -2.59,-2.75 -3.72,2.08 -8.31,5.77 -7.59,6.03 -15.19,12.06 -22.81,18.09 -3.14,2.48 0.84,6.72 3.65,5.5 13.55,-5.89 12.64,-9.17 23.18,6.2 1.98,2.87 4.83,4.61 6.88,7.07 9.3,11.04 18.69,22.18 28.16,33.47 0.71,0.83 0.52,1.37 -0.55,1.6zm1385.29 18.97l16.61 -68.33c3.12,-10.03 16.73,6.43 20.07,1.24 6.55,-10.17 -5.63,-2.52 -43.79,-38.57 -2.48,-2.34 -6.71,4.66 -3.81,7.24 8.98,7.95 7.24,11.63 2.61,30.44 -7.67,31.14 -9.18,50.07 -20.01,85.61l7.66 6.16c3.72,-2.47 7.3,-5.19 10.73,-8.16 5.95,-5.14 14.33,-7.99 21.06,-12.18 11.09,-6.9 22.16,-13.89 33.19,-20.95 26.02,-16.68 19.5,-17.69 40.06,-12.88 2.37,0.55 5.69,-4.16 3.62,-5.27 -15.03,-8.14 -33.37,-25.63 -35.35,-23.01 -5.24,6.94 13,13.25 5.82,19.32 -18.75,15.81 -35.82,25.84 -57.37,39.66 -0.38,0.25 -0.91,0.08 -1.07,-0.33zm-101.91 -43.47c7.82,-13.51 17.13,-25.68 24.16,-39.36l20.33 -35.95c3.62,-6.33 13.99,6.41 19.55,-0.72 0.97,-1.24 0.73,-2.19 -0.7,-2.84 -48.11,-21.87 -40.43,-34.75 -47.26,-21.84 -2.08,3.93 13.91,7.72 9.88,14.05 -13.68,21.31 -28.28,44.99 -43.82,71.01 -4.88,8.14 -21.41,-3.46 -20.34,4.24 0.15,1.08 0.84,2 1.83,2.45 46.47,21.39 40.41,33.39 47.27,21.42 1.79,-3.14 -12.95,-8.86 -10.89,-12.47zm-1180.38 -25.22c1.29,13.68 -19.76,36.86 -47.24,14.49 -2.09,-1.7 -9.42,2.1 -7.88,4.55 1.75,2.79 11.67,20.57 14.11,20.24 28.31,-3.85 56.24,-24.03 52,-47.54 -3.14,-17.39 -15.73,-32.55 -35.07,-30.8 -16.74,1.52 -44.88,12.2 -49.71,-4.13 -5.14,-17.34 18.59,-33.21 38.96,-13.2 1.98,1.94 9.78,-1.74 8.53,-3.96 -1.58,-2.76 -12.63,-20.84 -16.04,-20.22 -28.59,5.19 -53.86,27.21 -40.7,53.38 18.09,35.96 58.25,6.88 74.24,14.74 5.32,2.63 8.25,6.77 8.79,12.45zm1052.73 -122.01c14.41,30.65 30.05,77.45 42.06,111.17 2.28,6.4 10.47,8.6 11.28,6.8 12.09,-26.57 33.73,-74.74 37.88,-90.21 2.48,-9.3 16.63,2.83 20.82,-5.81 1.66,-3.45 -10.24,-5.42 -24.01,-12.59 -2.6,-1.35 -12.47,-5.59 -14.82,-2.76 -3.97,4.78 13.98,7.64 10.69,16.65 -7.28,19.88 -15.5,40.01 -24.65,60.35 -0.37,0.8 -1.51,0.78 -1.84,-0.04l-32.74 -88.13 -7.86 -18.3 -33.45 -14.99c-2.19,-0.99 -4.02,5.09 -2.05,6.28 19.12,11.5 13.34,20.07 5.55,36.4l-25.77 56.2c-2.51,10.5 -16.79,-6.77 -19.5,-0.04 -3.8,9.43 8.2,5.43 18.15,11.3 24.03,14.18 21.69,13.5 24.38,6.66 2,-5.03 -16.69,-6.41 -13.87,-13.7 2.33,-6.02 27.5,-69.88 29.75,-65.24zm-946.89 -16.56c3.22,7.79 6.61,15.8 10.13,24.07 1.71,4.04 2.45,8.35 4.15,12.44 5.42,13.11 10.51,26.44 15.3,39.98 4.04,8.45 -17.5,9.1 -14.78,18.72 1.63,5.79 9.53,-4.24 30.51,-9.77 3.35,-0.89 30.27,-7.87 29.69,-11.35 -1.83,-10.87 -17.61,3.04 -20.9,-4.91l-32.41 -78.43c-1.74,-4.2 11.61,-7.26 21.34,-11.03 7.45,-2.89 14.05,14.36 19.66,12.31 6.32,-2.3 3.23,-6.16 1.87,-9.7l-9.63 -22.97c-1.76,-2.44 -6.57,-0.5 -6.51,1.84 0.21,5.96 -3.37,7.03 -8.08,8.93 -23.5,9.5 -46.88,19.08 -70.19,28.77 -7.07,2.94 -8.45,-6.83 -14.64,-2.06l2.24 30.42c10.51,5.24 5.88,-14.52 17.13,-19.84 2.36,-1.12 23.37,-11.79 25.15,-7.42zm128.89 5.31c0.45,-5.87 1.01,-37.83 4.5,-32.8l18.44 26.56c1.72,2.51 -15.63,5.78 -21.53,7.39 -0.76,0.21 -1.48,-0.4 -1.42,-1.16zm-2.23 40.2c-1.53,-4.81 -0.42,-28.08 2.39,-28.91 41.74,-12.22 22.2,-12.99 46.54,11.5 7.03,7.06 -13.51,9.42 -12,14.91 0.45,1.62 0.69,3.66 3.06,2.8 16.38,-5.95 32.8,-10.6 49.25,-13.93 4.18,-0.84 2.99,-6.56 -0.69,-6.79 -6.32,-0.4 -11.01,2.38 -17.37,-6.1 -12.62,-16.8 -25.42,-33.43 -38.45,-49.9 -7.57,-9.57 -16.19,-17.22 -22.31,-28.57 -2.22,-4.15 -11.69,-1.22 -11.9,1.02l-10.89 107.67c-3.51,8.78 -15.08,4.26 -12.72,13.37 0.89,3.47 7.88,-0.41 13.76,-2.89 21.54,-9.13 29.08,-1.41 26.48,-11.67 -1.06,-4.17 -13.55,2.54 -15.15,-2.5zm736.04 -64.46c-3.69,18.19 -8.68,36.01 -14.96,53.48 -3.46,9.64 -9.44,15.92 -19.5,16.97 -14.71,1.52 -34.3,-3.86 -38.51,-19.79 -2.97,-11.23 15.31,-68.1 19.71,-78.88 2.92,-7.15 17.27,3.53 18.43,-0.87 3.3,-12.34 -0.09,-0.8 -51.47,-21.9 -2.81,-1.15 -5.15,6.2 -1.67,7.14 4.1,1.13 11.8,4.43 10.52,10.07 -4.09,17.8 -9.42,37.23 -16,58.26 -6.22,19.92 -0.9,34.86 16.72,45.1 18.98,11.03 56.89,16.93 67.51,-7.8 10.37,-24.17 14.64,-46.47 21.38,-71.59 1.6,-5.97 15.28,3.16 16.36,-2.47 1.68,-8.8 -0.46,-2.65 -37.12,-14.39 -2.93,-0.93 -4.36,5.09 -1.77,5.49 16.23,2.61 12.81,9.09 10.35,21.19zm-638.73 -50.51c24.05,54.12 21.82,40.04 24.16,-4.2 1.48,-27.86 -34.83,-19.63 -24.16,4.2zm115.29 72.74c-0.87,0.04 -1.37,-0.38 -1.46,-1.24 -3.45,-29.05 -5.92,-58.79 -7.44,-89.22 -0.3,-5.87 15.82,-4 15.19,-10.05 -1.06,-10.22 -3.15,-0.97 -56.11,1.41 -4.27,0.19 -3.76,6.25 0.72,7.25 15.53,3.46 15.37,1.71 16.65,13.83 2.7,25.6 5.25,51.17 7.64,76.73 0.7,7.47 -18.13,3.81 -18.07,10.04 0.01,1.73 -0.5,5.52 2.41,4.99 29.82,-5.27 61.35,-8.58 94.67,-9.93 3.93,-0.16 7.86,-0.27 7.9,-3.9 0.41,-33.38 0.35,-30.23 -5.82,-29.72 -5.3,0.44 2.23,23.55 -34.55,27.88 -7.61,0.9 -14.85,1.55 -21.73,1.93zm205.5 -82.27c0.2,-0.35 0.74,-0.3 0.87,0.1 10.76,31.04 21.97,57.58 29.94,89.07l7.29 1.01c3.94,-6.11 4.64,-13.02 7.86,-19.09l37.25 -64.41c0.64,-0.21 0.91,0 0.9,0.65 -0.99,21.08 -2.66,44.88 -4.95,71.4 -0.94,10.77 -16.64,4.59 -17.07,8.69 -1.36,13.08 0.05,-1.29 52.46,11.15 5,1.19 4.64,-4.77 1.72,-6.01 -6.57,-2.81 -12.92,-4.29 -12.72,-9.42l3.64 -83.45c0.19,-8.13 17.08,-4.42 17.44,-7.95 0.84,-8.23 5.5,-5.66 -36.37,-7.8 -1.17,-0.06 -2.27,0.53 -2.84,1.54 -7.4,12.99 -14.86,26.53 -22.4,40.65 -4.89,9.16 -11.51,17.26 -16.42,26.7 -3.07,5.94 -2.71,-3.68 -5.75,-11.9 -7.62,-20.63 -14.31,-40.07 -20.03,-58.34 -1,-3.21 -2.43,-6.22 -6.22,-6.71 -4.64,-0.61 -33.1,-4.25 -35.14,-2.21 -6.13,6.14 13.2,6.28 13.31,12.94l-11.88 84.64c-2.99,10.15 -14.55,0.26 -15.83,10.05 -0.15,1.21 0.38,1.8 1.59,1.83 39.78,0.61 40.72,10.6 40.94,-0.35 0.1,-4.72 -17.62,-1.83 -15.76,-17.2l8.15 -65.57zm-102.59 -17.29l1.41 87c0.1,10.08 -16.26,5.7 -15.91,11.51 0.62,10.14 4.06,-1.72 51.23,3.63 4.84,0.55 4.78,-7.35 0.25,-7.97 -5.21,-0.72 -12.81,-0.72 -12.85,-3.33l-0.95 -89.25c-0.07,-4.72 17.75,-2.47 16.04,-10.01 -0.24,-1.08 -0.93,-1.59 -2.05,-1.52 -17.62,1.2 -34.44,1.31 -50.44,0.3 -3.06,-0.19 -2.77,6.32 -0.07,6.68 4.32,0.58 13,0.88 13.33,2.95zm13.79 2463.37c-8.86,9.81 -27.12,8.2 -35.43,-2.34 -9.12,-11.58 -0.12,-12.8 -12.31,-13.28 -2.68,-0.1 -1.41,14.97 -1.41,20.84 0.01,6.47 65.51,23 65,-24.64 -0.3,-28.11 -34.91,-25.06 -45.75,-37.71 -14.8,-17.3 23.29,-36.86 32.9,-2.78 0.59,2.1 6.54,3.11 6.64,0.44 0.14,-3.87 0.97,-20.63 -3.1,-22.14 -39.38,-14.59 -63.6,11.24 -52.17,36.47 4.85,10.68 25.15,17.02 36.15,21.27 10.38,3.99 18.71,13.68 9.47,23.88z"/>
    <path class="fil4" d="M431.33 1502.62c24.46,0 44.28,19.82 44.28,44.27 0,24.46 -19.82,44.28 -44.28,44.28 -24.46,0 -44.28,-19.82 -44.28,-44.28 0,-24.45 19.82,-44.27 44.28,-44.27z"/>
    <path class="fil4" d="M2809.81 1502.62c24.46,0 44.28,19.82 44.28,44.27 0,24.46 -19.82,44.28 -44.28,44.28 -24.45,0 -44.27,-19.82 -44.27,-44.28 0,-24.45 19.82,-44.27 44.27,-44.27z"/>
    <path class="fil6" d="M1681.14 996.29c-1.56,0 -1.77,-0.53 -0.63,-1.58l50.02 -49.28c2,-2.5 4.39,-5.06 7.17,-7.62 36.34,-33.55 14.79,-90.94 -40.35,-81.9 -42,6.88 -42.14,49.54 -37.51,49.52 15.81,-0.07 0.86,-0.64 13.94,-21.59 8.73,-13.99 35.56,-12.73 43.97,-3.11 12.65,14.53 6.86,42.39 -3.6,56.65 -12.48,16.95 -25.61,32.61 -39.36,46.95 -6.66,6.95 -10.31,15.16 -17.68,21.42 -6.09,5.2 -6.6,14.33 -3.95,14.33l102.3 -0.02c0.53,0 0.99,-0.39 1.06,-0.91 7.15,-48.6 10.62,-42.37 -3.33,-42.41 -5.44,-0.01 -2.23,19.25 -18.06,19.36 -18.23,0.13 -36.23,0.19 -53.99,0.2zm-124.36 -125.97c10.16,-8.71 23.25,-2.11 27.15,9.12 7.53,21.68 4.81,95.39 0.3,117.38 -3.89,19.01 -36.66,30.08 -37.47,-17.14 -0.45,-25.7 -1.7,-51.88 -0.33,-78.13 0.62,-11.4 1.32,-23.46 10.35,-31.23zm25.57 -12.36c-27.65,-11.32 -51.28,11.06 -59.89,35.97 -10.53,30.47 -12.73,78.54 6.55,107.02 4.09,6.04 11.61,16.83 19.15,19.71 81.29,31.05 94.49,-138.04 34.19,-162.7zm-179.91 138.29c-1.57,0 -1.74,-0.49 -0.49,-1.48l58.08 -57.7c15,-13.74 17.47,-31.53 14.44,-51.99 -3.95,-26.57 -54.93,-46 -86.25,-12.5 -12.78,13.66 -10.92,32.81 -8.4,32.82l8.49 -1.15c4.04,-27.34 22.77,-37.08 43.82,-27.65 20.13,9.03 12.73,47.9 2.79,60.21 -8.01,9.95 -15.44,19.52 -22.28,28.7l-37.67 42.83c-3.46,3.41 -4,11.76 -1.54,11.76l102.14 0c0.58,0 1.05,-0.43 1.15,-0.97l6.16 -40.59c0.41,-2.71 -9.47,-2.52 -10.2,-0.59 -3.12,8.6 -4.97,18.17 -16.35,18.21 -18.21,0.06 -36.18,0.09 -53.89,0.09zm419.06 -1.22c9.42,-8.64 18.78,-17.44 28.04,-26.42 8.77,-8.51 15.83,-18.49 24.92,-26.43 46.2,-40.23 15.64,-98.77 -41,-85.27 -9.79,2.34 -18.54,7.84 -26.21,16.5 -9,10.18 -9.46,18.17 -8.96,30.6 0.09,2.23 9.69,2.14 9.91,0.11 3.02,-27.86 23.47,-36.97 46.18,-27.05 9.26,4.05 12.11,26.44 8.97,38.9 -5.71,22.74 -13.03,29.43 -29.55,48.7l-35.97 40.21c-5.89,6 -5,15.18 -3.71,15.18l102.85 0.02 7.02 -41.23c0.52,-3.42 -11.19,-3.15 -12.03,0 -2.24,8.41 -5.48,17.16 -15.48,17.24 -18.21,0.13 -36.38,0.2 -54.51,0.2 -1.24,0 -1.39,-0.42 -0.48,-1.26z"/>
   </g>
   <g>
    <path class="fil7" d="M3657.27 1417.63l9.16 0 17.17 0c50.08,0 85.28,-9.59 105.87,-28.91 20.46,-19.32 30.76,-52.07 30.76,-98.43 0,-40.5 -9.58,-70.25 -28.9,-89.13 -19.32,-18.89 -49.79,-28.33 -91.42,-28.33 -3.86,0 -10.59,0.43 -20.32,1.15 -9.58,0.71 -17.02,1.15 -22.32,1.43l0 242.22zm-215.47 -285.86c19.17,1.15 39.06,2 59.52,2.58 20.32,0.57 42.07,0.86 64.95,0.86 21.75,0 52.37,-0.58 92,-1.72 39.48,-1.15 68.39,-1.71 86.56,-1.71 72.39,0 127.34,13.02 164.96,38.77 37.48,25.9 56.37,63.82 56.37,113.88 0,48.08 -15.45,84.56 -46.36,109.59 -30.9,25.04 -78.69,39.78 -143.51,44.22 56.37,4.15 97.58,15.88 123.62,35.19 25.9,19.32 42.35,50.36 49.07,93 1.87,12.31 3.44,29.47 4.58,51.65 2.43,44.64 14.02,67.1 34.77,67.1 10.87,0 19.46,-3.86 25.61,-11.45 6.14,-7.43 11.15,-21.03 15.02,-40.63l30.62 4.29c-5.01,39.92 -18.31,69.53 -40.06,88.99 -21.61,19.46 -52.07,29.19 -91.14,29.19 -39.34,0 -67.95,-10.59 -85.7,-31.91 -17.74,-21.17 -26.62,-55.8 -26.62,-103.58l0 -43.92c0,-48.08 -8.44,-79.41 -25.33,-93.86 -17.02,-14.59 -49.78,-21.89 -98.29,-21.89l-35.19 0 0 172.69c0,33.05 4.15,53.65 12.73,62.09 8.44,8.29 28.33,12.59 59.23,12.59l0 40.2c-30.34,-1.71 -57.38,-3 -80.98,-3.72 -23.75,-0.86 -43.92,-1.29 -60.66,-1.29 -15.88,0 -36.05,0.43 -60.52,1.29 -24.47,0.72 -52.94,2.01 -85.27,3.72l0 -40.2c31.47,0 51.51,-4.44 60.08,-13.02 8.59,-8.73 12.73,-29.19 12.73,-61.67l0 -386.44c0,-32.33 -4.29,-52.94 -12.88,-61.38 -8.73,-8.58 -28.75,-12.88 -59.94,-13.16l0 -40.34zm1158.61 -3.72c1.15,32.91 2.43,62.95 4,89.85 1.43,27.04 3.3,53.22 5.59,78.69l-36.92 0c-4.44,-48.08 -16.02,-80.56 -34.91,-97.44 -18.89,-17.02 -54.22,-25.47 -105.87,-25.47l-128.63 0 0 227.63 53.22 0c36.49,0 59.37,-5.43 68.25,-16.6 9.01,-11.01 14.88,-37.06 17.6,-78.11l36.91 0c-0.28,5.29 -0.57,13.16 -0.85,23.46 -2.01,46.92 -2.86,79.26 -2.86,96.86 0,18.45 0.85,51.93 2.86,100.58 0.28,11.16 0.57,19.74 0.85,25.61l-36.91 0c-1.87,-43.92 -8.73,-73.4 -20.32,-88.28 -11.59,-14.87 -33.48,-22.46 -65.53,-22.46l-53.22 0 0 264.54 155.37 0c54.23,0 91.28,-9.88 111.18,-29.62 19.74,-19.6 32.48,-57.8 38.05,-114.6l36.92 0c-2.15,30.76 -4.15,61.52 -5.87,92.43 -1.71,30.9 -3.14,61.81 -4.57,92.85l-546.54 0 0 -40.2c31.47,0 51.51,-4.44 60.08,-13.02 8.59,-8.73 12.73,-29.19 12.73,-61.67l0 -386.44c0,-32.33 -4.29,-52.94 -12.88,-61.38 -8.73,-8.58 -28.75,-12.88 -59.94,-13.16l0 -40.34 116.46 0c72.68,0 141.5,-0.28 206.6,-1 65.25,-0.71 128.2,-1.57 189.15,-2.72zm98.87 3.72c24.89,1.43 45.64,2.43 62.52,3.14 16.74,0.72 31.05,1.15 43.06,1.15 12.88,0 28.19,-0.43 45.93,-1.15 17.74,-0.71 39.49,-1.71 65.25,-3.14l319.77 431.8 0 -306.47c0,-37.06 -4.58,-60.52 -13.88,-70.39 -9.16,-9.73 -28.9,-14.6 -59.09,-14.6l-5.01 0 0 -40.34c24.61,1.43 44.78,2.43 60.38,3.14 15.59,0.72 29.05,1.15 40.2,1.15 8.45,0 19.75,-0.43 34.2,-1.15 14.45,-0.71 34.19,-1.71 59.37,-3.14l0 40.34c-30.48,0 -50.36,4.58 -59.37,13.74 -9.16,9.3 -13.6,32.62 -13.6,70.1l0 250.95c0,34.48 -0.28,72.68 -0.85,114.89 -0.58,42.21 -1.43,86.56 -2.58,132.91l-74.98 -6.72 -381 -514.35 0 389.87c0,38.2 4.57,61.81 13.59,70.82 9.17,8.87 30.19,13.45 63.53,13.45l0 40.2c-29.05,-1.71 -50.94,-2.86 -65.39,-3.3 -14.59,-0.57 -26.18,-0.85 -34.77,-0.85 -7.3,0 -17.31,0.28 -30.18,0.85 -12.88,0.44 -34.63,1.58 -65.39,3.3l0 -40.2c32.05,0 52.79,-4.58 61.95,-13.88 9.3,-9.16 13.88,-32.62 13.88,-70.4l0 -376.85c0,-32.9 -4.44,-53.66 -13.45,-62.09 -8.87,-8.3 -30.33,-12.45 -64.09,-12.45l0 -40.34zm1220.69 -3.72c1.15,32.91 2.43,62.95 4,89.85 1.43,27.04 3.3,53.22 5.59,78.69l-36.92 0c-4.44,-48.08 -16.02,-80.56 -34.91,-97.44 -18.89,-17.02 -54.22,-25.47 -105.87,-25.47l-128.63 0 0 227.63 53.22 0c36.49,0 59.37,-5.43 68.25,-16.6 9.01,-11.01 14.88,-37.06 17.6,-78.11l36.91 0c-0.28,5.29 -0.57,13.16 -0.85,23.46 -2.01,46.92 -2.86,79.26 -2.86,96.86 0,18.45 0.85,51.93 2.86,100.58 0.28,11.16 0.57,19.74 0.85,25.61l-36.91 0c-1.87,-43.92 -8.73,-73.4 -20.32,-88.28 -11.59,-14.87 -33.48,-22.46 -65.53,-22.46l-53.22 0 0 264.54 155.37 0c54.23,0 91.28,-9.88 111.18,-29.62 19.74,-19.6 32.48,-57.8 38.05,-114.6l36.92 0c-2.15,30.76 -4.15,61.52 -5.87,92.43 -1.71,30.9 -3.14,61.81 -4.57,92.85l-546.54 0 0 -40.2c31.47,0 51.51,-4.44 60.08,-13.02 8.59,-8.73 12.73,-29.19 12.73,-61.67l0 -386.44c0,-32.33 -4.29,-52.94 -12.88,-61.38 -8.73,-8.58 -28.75,-12.88 -59.94,-13.16l0 -40.34 116.46 0c72.68,0 141.5,-0.28 206.6,-1 65.25,-0.71 128.2,-1.57 189.15,-2.72zm523.08 48.21l6.72 -36.91 31.05 0 0 85.13 0 63.24 0 36.05 -33.62 0c-4.44,-49.51 -20.03,-87.99 -46.93,-115.46 -26.75,-27.47 -61.8,-41.35 -104.73,-41.35 -31.91,0 -57.51,8.87 -76.82,26.47 -19.17,17.59 -28.91,40.77 -28.91,69.53 0,24.61 6.87,44.35 20.6,59.09 13.74,14.87 47.5,32.33 101.44,52.5 82.98,30.48 136.92,59.37 161.81,86.99 24.9,27.47 37.2,64.24 37.2,110.45 0,55.81 -20.6,100.44 -61.81,133.63 -41.21,33.34 -96.72,49.94 -166.54,49.94 -36.62,0 -69.96,-5.58 -100.15,-16.6 -30.18,-11.02 -58.37,-28.04 -84.27,-50.94l-10.59 46.93 -29.76 0 0 -44.36 0 -66.24 0 -54.08 0 -44.49 34.91 0c3.86,58.37 21.75,104.44 53.65,138.21 31.77,33.62 73.11,50.5 124.05,50.5 32.05,0 57.23,-8.45 75.25,-25.19 18.03,-16.73 27.04,-39.77 27.04,-69.24 0,-25.9 -7.16,-46.64 -21.17,-61.95 -14.16,-15.45 -42.07,-30.76 -83.7,-46.07 -6.44,-2.58 -16.17,-6.15 -29.33,-11.02 -53.66,-19.16 -92.14,-37.34 -115.61,-54.37 -24.32,-17.59 -42.21,-37.63 -53.5,-59.94 -11.31,-22.47 -17.02,-48.51 -17.02,-78.41 0,-57.08 20.02,-102.01 59.94,-135.06 40.06,-32.9 95,-49.36 165.25,-49.36 31.19,0 60.8,4.29 88.57,13.16 27.9,8.87 53.5,21.89 76.98,39.2zm581.02 0l6.72 -36.91 31.05 0 0 85.13 0 63.24 0 36.05 -33.62 0c-4.44,-49.51 -20.03,-87.99 -46.93,-115.46 -26.75,-27.47 -61.8,-41.35 -104.73,-41.35 -31.91,0 -57.51,8.87 -76.82,26.47 -19.17,17.59 -28.91,40.77 -28.91,69.53 0,24.61 6.87,44.35 20.6,59.09 13.74,14.87 47.5,32.33 101.44,52.5 82.98,30.48 136.92,59.37 161.81,86.99 24.9,27.47 37.2,64.24 37.2,110.45 0,55.81 -20.6,100.44 -61.81,133.63 -41.21,33.34 -96.72,49.94 -166.54,49.94 -36.62,0 -69.96,-5.58 -100.15,-16.6 -30.18,-11.02 -58.37,-28.04 -84.27,-50.94l-10.59 46.93 -29.76 0 0 -44.36 0 -66.24 0 -54.08 0 -44.49 34.91 0c3.86,58.37 21.75,104.44 53.65,138.21 31.77,33.62 73.11,50.5 124.05,50.5 32.05,0 57.23,-8.45 75.25,-25.19 18.03,-16.73 27.04,-39.77 27.04,-69.24 0,-25.9 -7.16,-46.64 -21.17,-61.95 -14.16,-15.45 -42.07,-30.76 -83.7,-46.07 -6.44,-2.58 -16.17,-6.15 -29.33,-11.02 -53.66,-19.16 -92.14,-37.34 -115.61,-54.37 -24.32,-17.59 -42.21,-37.63 -53.5,-59.94 -11.31,-22.47 -17.02,-48.51 -17.02,-78.41 0,-57.08 20.02,-102.01 59.94,-135.06 40.06,-32.9 95,-49.36 165.25,-49.36 31.19,0 60.8,4.29 88.57,13.16 27.9,8.87 53.5,21.89 76.98,39.2zm354.53 99.73l-76.26 215.47 149.23 0 -72.97 -215.47zm13.02 -152.09l75.4 0 198.3 539.82c6.44,16.74 14.16,28.18 23.32,34.19 9.01,6.01 23.89,9.3 44.64,9.88l0 40.2c-38.06,-1.71 -67.39,-2.86 -87.86,-3.3 -20.6,-0.57 -37.34,-0.85 -50.5,-0.85 -12.88,0 -29.76,0.28 -50.5,0.85 -20.89,0.44 -51.51,1.58 -91.99,3.3l0.43 -40.2c24.04,-1.72 39.78,-4.58 47.5,-8.59 7.73,-4.15 11.59,-11.01 11.59,-20.74 0,-5.58 -0.14,-9.58 -0.44,-12.01 -0.28,-2.29 -0.71,-4.3 -1.29,-5.59l-44.06 -127.48 -177.7 0 -37.63 106.45 -0.85 3c-5.59,16.74 -8.45,28.91 -8.45,36.49 0,9.72 3.58,16.6 10.44,20.74 7.02,4 20.89,6.58 41.49,7.73l0.44 40.2c-24.04,-1.71 -42.21,-2.86 -54.66,-3.3 -12.44,-0.57 -22.6,-0.85 -30.33,-0.85 -7.58,0 -17.32,0.28 -29.33,0.85 -12.01,0.44 -29.76,1.58 -53.36,3.3l0 -40.2c19.32,-0.58 33.19,-3.72 41.63,-9.3 8.29,-5.59 16.31,-18.61 23.75,-38.92l200.01 -535.66zm349.96 7.87c24.89,1.43 45.64,2.43 62.52,3.14 16.74,0.72 31.05,1.15 43.06,1.15 12.88,0 28.19,-0.43 45.93,-1.15 17.74,-0.71 39.49,-1.71 65.25,-3.14l319.77 431.8 0 -306.47c0,-37.06 -4.58,-60.52 -13.88,-70.39 -9.16,-9.73 -28.9,-14.6 -59.09,-14.6l-5.01 0 0 -40.34c24.61,1.43 44.78,2.43 60.38,3.14 15.59,0.72 29.05,1.15 40.2,1.15 8.45,0 19.75,-0.43 34.2,-1.15 14.45,-0.71 34.19,-1.71 59.37,-3.14l0 40.34c-30.48,0 -50.36,4.58 -59.37,13.74 -9.16,9.3 -13.6,32.62 -13.6,70.1l0 250.95c0,34.48 -0.28,72.68 -0.85,114.89 -0.58,42.21 -1.43,86.56 -2.58,132.91l-74.98 -6.72 -381 -514.35 0 389.87c0,38.2 4.57,61.81 13.59,70.82 9.17,8.87 30.19,13.45 63.53,13.45l0 40.2c-29.05,-1.71 -50.94,-2.86 -65.39,-3.3 -14.59,-0.57 -26.18,-0.85 -34.77,-0.85 -7.3,0 -17.31,0.28 -30.18,0.85 -12.88,0.44 -34.63,1.58 -65.39,3.3l0 -40.2c32.05,0 52.79,-4.58 61.95,-13.88 9.3,-9.16 13.88,-32.62 13.88,-70.4l0 -376.85c0,-32.9 -4.44,-53.66 -13.45,-62.09 -8.87,-8.3 -30.33,-12.45 -64.09,-12.45l0 -40.34zm1124.69 44.49l6.72 -36.91 31.05 0 0 85.13 0 63.24 0 36.05 -33.62 0c-4.44,-49.51 -20.03,-87.99 -46.93,-115.46 -26.75,-27.47 -61.8,-41.35 -104.73,-41.35 -31.91,0 -57.51,8.87 -76.82,26.47 -19.17,17.59 -28.91,40.77 -28.91,69.53 0,24.61 6.87,44.35 20.6,59.09 13.74,14.87 47.5,32.33 101.44,52.5 82.98,30.48 136.92,59.37 161.81,86.99 24.9,27.47 37.2,64.24 37.2,110.45 0,55.81 -20.6,100.44 -61.81,133.63 -41.21,33.34 -96.72,49.94 -166.54,49.94 -36.62,0 -69.96,-5.58 -100.15,-16.6 -30.18,-11.02 -58.37,-28.04 -84.27,-50.94l-10.59 46.93 -29.76 0 0 -44.36 0 -66.24 0 -54.08 0 -44.49 34.91 0c3.86,58.37 21.75,104.44 53.65,138.21 31.77,33.62 73.11,50.5 124.05,50.5 32.05,0 57.23,-8.45 75.25,-25.19 18.03,-16.73 27.04,-39.77 27.04,-69.24 0,-25.9 -7.16,-46.64 -21.17,-61.95 -14.16,-15.45 -42.07,-30.76 -83.7,-46.07 -6.44,-2.58 -16.17,-6.15 -29.33,-11.02 -53.66,-19.16 -92.14,-37.34 -115.61,-54.37 -24.32,-17.59 -42.21,-37.63 -53.5,-59.94 -11.31,-22.47 -17.02,-48.51 -17.02,-78.41 0,-57.08 20.02,-102.01 59.94,-135.06 40.06,-32.9 95,-49.36 165.25,-49.36 31.19,0 60.8,4.29 88.57,13.16 27.9,8.87 53.5,21.89 76.98,39.2zm413.19 -44.49l570.86 0 17.17 169.83 -35.19 0c-7.44,-50.66 -19.75,-84.56 -36.63,-101.87 -16.88,-17.32 -47.21,-26.05 -90.7,-26.05l-68.39 0 0 459.41c0,34.34 4,55.37 12.16,63.1 8.16,7.73 28.04,11.59 59.95,11.59l9.3 0 0 40.2c-32.48,-1.71 -61.38,-3 -86.56,-3.72 -25.33,-0.86 -46.78,-1.29 -64.38,-1.29 -18.17,0 -40.06,0.43 -65.81,1.29 -25.75,0.72 -55.65,2.01 -89.71,3.72l0 -40.2 7.58 0c31.48,0 51.79,-3.86 60.66,-11.59 9.01,-7.73 13.45,-28.75 13.45,-63.1l0 -459.41 -68.68 0c-42.78,0 -72.82,8.73 -90.14,26.19 -17.31,17.59 -29.62,51.36 -36.91,101.73l-35.2 0 17.18 -169.83zm791.33 144.22l-76.26 215.47 149.23 0 -72.97 -215.47zm13.02 -152.09l75.4 0 198.3 539.82c6.44,16.74 14.16,28.18 23.32,34.19 9.01,6.01 23.89,9.3 44.64,9.88l0 40.2c-38.06,-1.71 -67.39,-2.86 -87.86,-3.3 -20.6,-0.57 -37.34,-0.85 -50.5,-0.85 -12.88,0 -29.76,0.28 -50.5,0.85 -20.89,0.44 -51.51,1.58 -91.99,3.3l0.43 -40.2c24.04,-1.72 39.78,-4.58 47.5,-8.59 7.73,-4.15 11.59,-11.01 11.59,-20.74 0,-5.58 -0.14,-9.58 -0.44,-12.01 -0.28,-2.29 -0.71,-4.3 -1.29,-5.59l-44.06 -127.48 -177.7 0 -37.63 106.45 -0.85 3c-5.59,16.74 -8.45,28.91 -8.45,36.49 0,9.72 3.58,16.6 10.44,20.74 7.02,4 20.89,6.58 41.49,7.73l0.44 40.2c-24.04,-1.71 -42.21,-2.86 -54.66,-3.3 -12.44,-0.57 -22.6,-0.85 -30.33,-0.85 -7.58,0 -17.32,0.28 -29.33,0.85 -12.01,0.44 -29.76,1.58 -53.36,3.3l0 -40.2c19.32,-0.58 33.19,-3.72 41.63,-9.3 8.29,-5.59 16.31,-18.61 23.75,-38.92l200.01 -535.66zm290.87 278.28l-18.74 -31.05c28.75,-17.03 50.36,-34.63 64.67,-52.94 14.45,-18.32 22.03,-37.64 22.89,-57.66 -4.15,1.15 -8.45,1.86 -12.59,2.43 -4.15,0.57 -8.29,0.85 -12.16,0.85 -19.03,0 -34.34,-6.14 -46.07,-18.45 -11.73,-12.3 -17.6,-28.47 -17.6,-48.65 0,-21.45 6.73,-38.77 20.32,-51.65 13.44,-13.02 31.33,-19.6 53.36,-19.6 22.61,0 41.36,8.59 56.23,25.9 14.74,17.17 22.17,39.21 22.17,65.96 0,37.2 -11.15,71.26 -33.34,102.01 -22.17,30.9 -55.22,58.52 -99.15,82.85zm216.76 -270.41l7.44 0c72.96,4 119.32,5.86 139.21,5.86 13.16,0 29.9,-0.43 50.36,-1.14 20.31,-0.86 53.93,-2.43 100.58,-4.72l0 40.34 -7.58 0c-31.62,0 -51.94,4.15 -60.96,12.73 -9.16,8.59 -13.59,29.19 -13.59,61.81l0 453.12 122.75 0c53.08,0 90.28,-11.16 111.74,-33.34 21.31,-22.17 34.91,-65.1 40.77,-128.91l37.78 0c-2.29,40.49 -5.01,78.41 -8.45,113.46 -3.29,35.05 -7.01,68.53 -11.31,100.3 -67.81,-1.58 -123.76,-2.87 -167.68,-3.72 -43.78,-0.86 -75.68,-1.29 -95.57,-1.29 -67.53,0 -118.32,0.14 -152.09,0.43 -33.76,0.28 -64.95,0.72 -93.42,1.29l0 -40.2c31.47,0 51.51,-4.44 60.08,-13.02 8.59,-8.73 12.73,-29.19 12.73,-61.67l0 -386.44c0,-32.33 -4.29,-52.94 -12.88,-61.38 -8.73,-8.58 -28.75,-12.88 -59.94,-13.16l0 -40.34zm569.14 0c28.47,1.71 54.8,3 78.83,3.86 24.04,0.86 45.5,1.29 64.53,1.29 18.75,0 40.21,-0.43 64.67,-1.29 24.47,-0.86 51.8,-2.15 81.99,-3.86l0 40.34c-32.05,0 -52.51,4 -60.95,12.31 -8.59,8.29 -12.73,29.04 -12.73,62.23l0 386.44c0,33.05 4.15,53.65 12.73,62.09 8.44,8.29 28.9,12.59 60.95,12.59l0 40.2c-30.76,-1.71 -58.09,-3 -82.13,-3.72 -24.03,-0.86 -44.49,-1.29 -61.23,-1.29 -16.17,0 -36.63,0.43 -61.24,1.29 -24.47,0.72 -53.08,2.01 -85.41,3.72l0 -40.2c31.77,0 52.07,-4.3 60.8,-12.88 8.59,-8.45 12.88,-29.05 12.88,-61.81l0 -386.44c0,-33.2 -4.29,-53.94 -12.88,-62.23 -8.73,-8.3 -29.04,-12.31 -60.8,-12.31l0 -40.34zm352.11 0c25.32,1.43 46.78,2.43 64.24,3.14 17.45,0.72 32.9,1.15 46.36,1.15 10.87,0 25.03,-0.43 42.34,-1.15 17.32,-0.71 43.07,-1.71 77.12,-3.14l159.67 452.26 159.39 -452.26c26.76,1.43 48.79,2.43 66.1,3.14 17.46,0.72 32.33,1.15 44.93,1.15 12.3,0 27.18,-0.43 44.78,-1.15 17.59,-0.71 40.77,-1.71 69.24,-3.14l0 39.92c-30.75,0.57 -50.36,4.72 -58.65,12.59 -8.45,7.73 -12.59,28.03 -12.59,60.66l0 388.16c0,33.34 4.15,54.08 12.59,62.23 8.29,8.3 27.9,12.45 58.65,12.45l0 40.2c-31.9,-1.71 -59.66,-3 -83.26,-3.72 -23.61,-0.86 -43.07,-1.29 -58.38,-1.29 -17.59,0 -38.05,0.43 -61.23,1.29 -23.18,0.72 -49.5,2.01 -78.83,3.72l0 -40.2c31.33,0 51.07,-4.3 59.52,-12.88 8.45,-8.45 12.59,-29.05 12.59,-61.81l0 -420.78 -3.3 0 -190.43 536.53 -65.38 -5.01 -186.43 -531.52 -4.29 0 -5.01 407.77 0 11.01c0,32.91 4.57,53.94 13.88,63.1 9.16,9.01 28.03,13.6 56.52,13.6l0 40.2c-18.89,-1.15 -36.35,-2.01 -52.08,-2.58 -15.88,-0.43 -28.47,-0.72 -37.91,-0.72 -14.88,0 -41.93,0.72 -81.41,2.43 -8.87,0.29 -15.89,0.58 -20.9,0.86l0 -40.2c33.2,-0.86 54.66,-5.43 64.1,-13.88 9.44,-8.45 14.59,-31.33 15.03,-68.67l5.86 -407.91 0 -3.29c0,-17.6 -3.86,-29.05 -11.87,-34.2 -8.01,-5.15 -28.33,-7.73 -60.95,-7.73l0 -40.34zm1103.95 0c28.76,1.71 54.94,3 78.55,3.86 23.61,0.86 44.93,1.29 63.96,1.29 18.17,0 39.35,-0.43 63.52,-1.29 24.18,-0.86 51.36,-2.15 81.56,-3.86l0 40.34c-31.06,0 -50.8,4.15 -59.38,12.45 -8.44,8.44 -12.72,29.19 -12.72,62.09l0 276.27c0,63.96 11.44,108.31 34.33,133.07 22.89,24.75 61.81,37.05 116.47,37.05 55.65,0 95.43,-13.73 119.18,-41.21 23.75,-27.61 35.63,-74.97 35.63,-142.35l0 -256.1c0,-38.91 -4.58,-62.09 -13.45,-69.82 -9.01,-7.73 -28.47,-11.45 -58.65,-11.45l0 -40.34c7.15,0.28 17.74,0.86 31.33,1.71 30.76,2.29 50.94,3.44 60.38,3.44 9.88,0 29.19,-1.15 58.23,-3.44 12.01,-0.85 21.32,-1.43 27.76,-1.71l-0.44 40.34c-23.75,0.28 -39.34,4 -46.92,11.31 -7.58,7.16 -11.31,26.9 -11.31,59.09l0 213.75c0,54.51 -1.71,94.28 -4.87,119.18 -3.14,25.04 -8.72,46.21 -16.6,63.52 -17.31,38.92 -44.77,67.96 -82.55,87.42 -37.77,19.46 -85.41,29.19 -142.92,29.19 -46.65,0 -87.56,-6.44 -122.76,-19.32 -35.19,-12.88 -63.38,-31.91 -84.27,-56.94 -15.17,-18.46 -25.9,-40.35 -32.33,-65.53 -6.44,-25.04 -9.59,-61.1 -9.59,-108.02l0 -259.11c0,-32.62 -4.15,-53.08 -12.58,-61.38 -8.45,-8.29 -28.19,-12.58 -59.53,-13.16l0 -40.34zm692.48 0c24.89,1.43 45.64,2.43 62.52,3.14 16.74,0.72 31.05,1.15 43.06,1.15 12.88,0 28.19,-0.43 45.93,-1.15 17.74,-0.71 39.49,-1.71 65.25,-3.14l319.77 431.8 0 -306.47c0,-37.06 -4.58,-60.52 -13.88,-70.39 -9.16,-9.73 -28.9,-14.6 -59.09,-14.6l-5.01 0 0 -40.34c24.61,1.43 44.78,2.43 60.38,3.14 15.59,0.72 29.05,1.15 40.2,1.15 8.45,0 19.75,-0.43 34.2,-1.15 14.45,-0.71 34.19,-1.71 59.37,-3.14l0 40.34c-30.48,0 -50.36,4.58 -59.37,13.74 -9.16,9.3 -13.6,32.62 -13.6,70.1l0 250.95c0,34.48 -0.28,72.68 -0.85,114.89 -0.58,42.21 -1.43,86.56 -2.58,132.91l-74.98 -6.72 -381 -514.35 0 389.87c0,38.2 4.57,61.81 13.59,70.82 9.17,8.87 30.19,13.45 63.53,13.45l0 40.2c-29.05,-1.71 -50.94,-2.86 -65.39,-3.3 -14.59,-0.57 -26.18,-0.85 -34.77,-0.85 -7.3,0 -17.31,0.28 -30.18,0.85 -12.88,0.44 -34.63,1.58 -65.39,3.3l0 -40.2c32.05,0 52.79,-4.58 61.95,-13.88 9.3,-9.16 13.88,-32.62 13.88,-70.4l0 -376.85c0,-32.9 -4.44,-53.66 -13.45,-62.09 -8.87,-8.3 -30.33,-12.45 -64.09,-12.45l0 -40.34zm707.63 0c28.47,1.71 54.8,3 78.83,3.86 24.04,0.86 45.5,1.29 64.53,1.29 18.75,0 40.21,-0.43 64.67,-1.29 24.47,-0.86 51.8,-2.15 81.99,-3.86l0 40.34c-32.05,0 -52.51,4 -60.95,12.31 -8.59,8.29 -12.73,29.04 -12.73,62.23l0 386.44c0,33.05 4.15,53.65 12.73,62.09 8.44,8.29 28.9,12.59 60.95,12.59l0 40.2c-30.76,-1.71 -58.09,-3 -82.13,-3.72 -24.03,-0.86 -44.49,-1.29 -61.23,-1.29 -16.17,0 -36.63,0.43 -61.24,1.29 -24.47,0.72 -53.08,2.01 -85.41,3.72l0 -40.2c31.77,0 52.07,-4.3 60.8,-12.88 8.59,-8.45 12.88,-29.05 12.88,-61.81l0 -386.44c0,-33.2 -4.29,-53.94 -12.88,-62.23 -8.73,-8.3 -29.04,-12.31 -60.8,-12.31l0 -40.34zm308.05 0c29.04,1.71 54.79,3 77.11,3.86 22.33,0.86 41.06,1.29 56.23,1.29 17.89,0 38.63,-0.43 62.23,-1.29 23.61,-0.86 50.08,-2.15 79.41,-3.86l-0.43 40.34c-22.61,0.72 -38.06,3.58 -46.07,8.3 -8.15,4.71 -12.17,12.88 -12.17,24.32 0,3.14 0.58,7.15 1.87,12.16 1.29,5.01 3.58,12.01 6.86,21.03l132.06 371.71 125.33 -369.7c2.58,-7.73 4.43,-15.17 5.86,-22.03 1.44,-6.72 2.15,-12.45 2.15,-16.88 0,-9.88 -5.29,-17.03 -15.74,-21.89 -10.44,-4.72 -26.76,-7.02 -48.79,-7.02l0 -40.34c6.58,0.28 16.31,0.86 28.9,1.71 29.33,2.29 48.93,3.44 58.67,3.44 8.59,0 27.18,-1 55.8,-3 13.02,-1.15 23.18,-1.87 30.05,-2.15l-0.29 40.34c-20.46,1.87 -34.47,5.43 -41.92,10.59 -7.58,5.15 -13.88,14.74 -18.89,28.76l-133.78 384.72c-5.29,15.17 -13.44,36.49 -24.32,64.24 -10.87,27.61 -23.75,59.37 -38.48,95.15l-75.55 -5.87 -198.16 -525.22c-9.3,-23.76 -18.03,-38.49 -26.18,-44.06 -8.29,-5.59 -20.89,-8.3 -38.06,-8.3l-3.71 0 0 -40.34zm1134.71 -3.72c1.15,32.91 2.43,62.95 4,89.85 1.43,27.04 3.3,53.22 5.59,78.69l-36.92 0c-4.44,-48.08 -16.02,-80.56 -34.91,-97.44 -18.89,-17.02 -54.22,-25.47 -105.87,-25.47l-128.63 0 0 227.63 53.22 0c36.49,0 59.37,-5.43 68.25,-16.6 9.01,-11.01 14.88,-37.06 17.6,-78.11l36.91 0c-0.28,5.29 -0.57,13.16 -0.85,23.46 -2.01,46.92 -2.86,79.26 -2.86,96.86 0,18.45 0.85,51.93 2.86,100.58 0.28,11.16 0.57,19.74 0.85,25.61l-36.91 0c-1.87,-43.92 -8.73,-73.4 -20.32,-88.28 -11.59,-14.87 -33.48,-22.46 -65.53,-22.46l-53.22 0 0 264.54 155.37 0c54.23,0 91.28,-9.88 111.18,-29.62 19.74,-19.6 32.48,-57.8 38.05,-114.6l36.92 0c-2.15,30.76 -4.15,61.52 -5.87,92.43 -1.71,30.9 -3.14,61.81 -4.57,92.85l-546.54 0 0 -40.2c31.47,0 51.51,-4.44 60.08,-13.02 8.59,-8.73 12.73,-29.19 12.73,-61.67l0 -386.44c0,-32.33 -4.29,-52.94 -12.88,-61.38 -8.73,-8.58 -28.75,-12.88 -59.94,-13.16l0 -40.34 116.46 0c72.68,0 141.5,-0.28 206.6,-1 65.25,-0.71 128.2,-1.57 189.15,-2.72zm322.34 289.58l9.16 0 17.17 0c50.08,0 85.28,-9.59 105.87,-28.91 20.46,-19.32 30.76,-52.07 30.76,-98.43 0,-40.5 -9.58,-70.25 -28.9,-89.13 -19.32,-18.89 -49.79,-28.33 -91.42,-28.33 -3.86,0 -10.59,0.43 -20.32,1.15 -9.58,0.71 -17.02,1.15 -22.32,1.43l0 242.22zm-215.47 -285.86c19.17,1.15 39.06,2 59.52,2.58 20.32,0.57 42.07,0.86 64.95,0.86 21.75,0 52.37,-0.58 92,-1.72 39.48,-1.15 68.39,-1.71 86.56,-1.71 72.39,0 127.34,13.02 164.96,38.77 37.48,25.9 56.37,63.82 56.37,113.88 0,48.08 -15.45,84.56 -46.36,109.59 -30.9,25.04 -78.69,39.78 -143.51,44.22 56.37,4.15 97.58,15.88 123.62,35.19 25.9,19.32 42.35,50.36 49.07,93 1.87,12.31 3.44,29.47 4.58,51.65 2.43,44.64 14.02,67.1 34.77,67.1 10.87,0 19.46,-3.86 25.61,-11.45 6.14,-7.43 11.15,-21.03 15.02,-40.63l30.62 4.29c-5.01,39.92 -18.31,69.53 -40.06,88.99 -21.61,19.46 -52.07,29.19 -91.14,29.19 -39.34,0 -67.95,-10.59 -85.7,-31.91 -17.74,-21.17 -26.62,-55.8 -26.62,-103.58l0 -43.92c0,-48.08 -8.44,-79.41 -25.33,-93.86 -17.02,-14.59 -49.78,-21.89 -98.29,-21.89l-35.19 0 0 172.69c0,33.05 4.15,53.65 12.73,62.09 8.44,8.29 28.33,12.59 59.23,12.59l0 40.2c-30.34,-1.71 -57.38,-3 -80.98,-3.72 -23.75,-0.86 -43.92,-1.29 -60.66,-1.29 -15.88,0 -36.05,0.43 -60.52,1.29 -24.47,0.72 -52.94,2.01 -85.27,3.72l0 -40.2c31.47,0 51.51,-4.44 60.08,-13.02 8.59,-8.73 12.73,-29.19 12.73,-61.67l0 -386.44c0,-32.33 -4.29,-52.94 -12.88,-61.38 -8.73,-8.58 -28.75,-12.88 -59.94,-13.16l0 -40.34z"/>
    <path class="fil7" d="M16629.02 1176.25l6.72 -36.91 31.05 0 0 85.13 0 63.24 0 36.05 -33.62 0c-4.44,-49.51 -20.03,-87.99 -46.93,-115.46 -26.75,-27.47 -61.8,-41.35 -104.73,-41.35 -31.91,0 -57.51,8.87 -76.82,26.47 -19.17,17.59 -28.91,40.77 -28.91,69.53 0,24.61 6.87,44.35 20.6,59.09 13.74,14.87 47.5,32.33 101.44,52.5 82.98,30.48 136.92,59.37 161.81,86.99 24.9,27.47 37.2,64.24 37.2,110.45 0,55.81 -20.6,100.44 -61.81,133.63 -41.21,33.34 -96.72,49.94 -166.54,49.94 -36.62,0 -69.96,-5.58 -100.15,-16.6 -30.18,-11.02 -58.37,-28.04 -84.27,-50.94l-10.59 46.93 -29.76 0 0 -44.36 0 -66.24 0 -54.08 0 -44.49 34.91 0c3.86,58.37 21.75,104.44 53.65,138.21 31.77,33.62 73.11,50.5 124.05,50.5 32.05,0 57.23,-8.45 75.25,-25.19 18.03,-16.73 27.04,-39.77 27.04,-69.24 0,-25.9 -7.16,-46.64 -21.17,-61.95 -14.16,-15.45 -42.07,-30.76 -83.7,-46.07 -6.44,-2.58 -16.17,-6.15 -29.33,-11.02 -53.66,-19.16 -92.14,-37.34 -115.61,-54.37 -24.32,-17.59 -42.21,-37.63 -53.5,-59.94 -11.31,-22.47 -17.02,-48.51 -17.02,-78.41 0,-57.08 20.02,-102.01 59.94,-135.06 40.06,-32.9 95,-49.36 165.25,-49.36 31.19,0 60.8,4.29 88.57,13.16 27.9,8.87 53.5,21.89 76.98,39.2zm147.93 -44.49c28.47,1.71 54.8,3 78.83,3.86 24.04,0.86 45.5,1.29 64.53,1.29 18.75,0 40.21,-0.43 64.67,-1.29 24.47,-0.86 51.8,-2.15 81.99,-3.86l0 40.34c-32.05,0 -52.51,4 -60.95,12.31 -8.59,8.29 -12.73,29.04 -12.73,62.23l0 386.44c0,33.05 4.15,53.65 12.73,62.09 8.44,8.29 28.9,12.59 60.95,12.59l0 40.2c-30.76,-1.71 -58.09,-3 -82.13,-3.72 -24.03,-0.86 -44.49,-1.29 -61.23,-1.29 -16.17,0 -36.63,0.43 -61.24,1.29 -24.47,0.72 -53.08,2.01 -85.41,3.72l0 -40.2c31.77,0 52.07,-4.3 60.8,-12.88 8.59,-8.45 12.88,-29.05 12.88,-61.81l0 -386.44c0,-33.2 -4.29,-53.94 -12.88,-62.23 -8.73,-8.3 -29.04,-12.31 -60.8,-12.31l0 -40.34zm349.54 0l570.86 0 17.17 169.83 -35.19 0c-7.44,-50.66 -19.75,-84.56 -36.63,-101.87 -16.88,-17.32 -47.21,-26.05 -90.7,-26.05l-68.39 0 0 459.41c0,34.34 4,55.37 12.16,63.1 8.16,7.73 28.04,11.59 59.95,11.59l9.3 0 0 40.2c-32.48,-1.71 -61.38,-3 -86.56,-3.72 -25.33,-0.86 -46.78,-1.29 -64.38,-1.29 -18.17,0 -40.06,0.43 -65.81,1.29 -25.75,0.72 -55.65,2.01 -89.71,3.72l0 -40.2 7.58 0c31.48,0 51.79,-3.86 60.66,-11.59 9.01,-7.73 13.45,-28.75 13.45,-63.1l0 -459.41 -68.68 0c-42.78,0 -72.82,8.73 -90.14,26.19 -17.31,17.59 -29.62,51.36 -36.91,101.73l-35.2 0 17.18 -169.83zm1144.73 -3.72c1.15,32.91 2.43,62.95 4,89.85 1.43,27.04 3.3,53.22 5.59,78.69l-36.92 0c-4.44,-48.08 -16.02,-80.56 -34.91,-97.44 -18.89,-17.02 -54.22,-25.47 -105.87,-25.47l-128.63 0 0 227.63 53.22 0c36.49,0 59.37,-5.43 68.25,-16.6 9.01,-11.01 14.88,-37.06 17.6,-78.11l36.91 0c-0.28,5.29 -0.57,13.16 -0.85,23.46 -2.01,46.92 -2.86,79.26 -2.86,96.86 0,18.45 0.85,51.93 2.86,100.58 0.28,11.16 0.57,19.74 0.85,25.61l-36.91 0c-1.87,-43.92 -8.73,-73.4 -20.32,-88.28 -11.59,-14.87 -33.48,-22.46 -65.53,-22.46l-53.22 0 0 264.54 155.37 0c54.23,0 91.28,-9.88 111.18,-29.62 19.74,-19.6 32.48,-57.8 38.05,-114.6l36.92 0c-2.15,30.76 -4.15,61.52 -5.87,92.43 -1.71,30.9 -3.14,61.81 -4.57,92.85l-546.54 0 0 -40.2c31.47,0 51.51,-4.44 60.08,-13.02 8.59,-8.73 12.73,-29.19 12.73,-61.67l0 -386.44c0,-32.33 -4.29,-52.94 -12.88,-61.38 -8.73,-8.58 -28.75,-12.88 -59.94,-13.16l0 -40.34 116.46 0c72.68,0 141.5,-0.28 206.6,-1 65.25,-0.71 128.2,-1.57 189.15,-2.72zm104.3 3.72l570.86 0 17.17 169.83 -35.19 0c-7.44,-50.66 -19.75,-84.56 -36.63,-101.87 -16.88,-17.32 -47.21,-26.05 -90.7,-26.05l-68.39 0 0 459.41c0,34.34 4,55.37 12.16,63.1 8.16,7.73 28.04,11.59 59.95,11.59l9.3 0 0 40.2c-32.48,-1.71 -61.38,-3 -86.56,-3.72 -25.33,-0.86 -46.78,-1.29 -64.38,-1.29 -18.17,0 -40.06,0.43 -65.81,1.29 -25.75,0.72 -55.65,2.01 -89.71,3.72l0 -40.2 7.58 0c31.48,0 51.79,-3.86 60.66,-11.59 9.01,-7.73 13.45,-28.75 13.45,-63.1l0 -459.41 -68.68 0c-42.78,0 -72.82,8.73 -90.14,26.19 -17.31,17.59 -29.62,51.36 -36.91,101.73l-35.2 0 17.18 -169.83zm631.67 0c28.47,1.71 54.8,3 78.83,3.86 24.04,0.86 45.5,1.29 64.53,1.29 18.75,0 40.21,-0.43 64.67,-1.29 24.47,-0.86 51.8,-2.15 81.99,-3.86l0 40.34c-32.05,0 -52.51,4 -60.95,12.31 -8.59,8.29 -12.73,29.04 -12.73,62.23l0 386.44c0,33.05 4.15,53.65 12.73,62.09 8.44,8.29 28.9,12.59 60.95,12.59l0 40.2c-30.76,-1.71 -58.09,-3 -82.13,-3.72 -24.03,-0.86 -44.49,-1.29 -61.23,-1.29 -16.17,0 -36.63,0.43 -61.24,1.29 -24.47,0.72 -53.08,2.01 -85.41,3.72l0 -40.2c31.77,0 52.07,-4.3 60.8,-12.88 8.59,-8.45 12.88,-29.05 12.88,-61.81l0 -386.44c0,-33.2 -4.29,-53.94 -12.88,-62.23 -8.73,-8.3 -29.04,-12.31 -60.8,-12.31l0 -40.34z"/>
   </g>
  </g>
 </g>
</svg>
