<svg xmlns="http://www.w3.org/2000/svg" width="43" height="38" viewBox="0 0 43 38" fill="none">
    <g clip-path="url(#clip0_1_33256)">
        <path d="M23.91 8.52289L21.5015 4.26144L19.0898 0L16.6781 4.26144L2.40839 29.4808L0 33.7385L2.41173 37.9999L4.82012 33.7385L7.23185 29.4808L19.0899 8.52289L21.5016 12.7805L30.948 29.4808H35.7681L23.91 8.52289Z" fill="#41A5EE"/>
        <path d="M40.5915 29.4809L26.3217 4.26144L23.9099 0H19.0898L21.5015 4.26144L23.9099 8.52289L35.768 29.4808H12.0519L9.64355 33.7385H43L40.5915 29.4809Z" fill="#2B7CD3"/>
        <path d="M38.1798 33.7386H9.64338L12.0518 29.481L21.5015 12.7806L19.0897 8.52301L7.23174 29.481L4.82001 33.7386L2.41162 38H40.5914L42.9999 33.7386H38.1798Z" fill="#103F91"/>
    </g>
    <defs>
        <clipPath id="clip0_1_33256">
            <rect width="43" height="38" fill="white"/>
        </clipPath>
    </defs>
</svg>